<?xml version="1.0" encoding="UTF-8" standalone="no"?>
<svg
   xmlns:dc="http://purl.org/dc/elements/1.1/"
   xmlns:cc="http://creativecommons.org/ns#"
   xmlns:rdf="http://www.w3.org/1999/02/22-rdf-syntax-ns#"
   xmlns:svg="http://www.w3.org/2000/svg"
   xmlns="http://www.w3.org/2000/svg"
   xmlns:sodipodi="http://sodipodi.sourceforge.net/DTD/sodipodi-0.dtd"
   xmlns:inkscape="http://www.inkscape.org/namespaces/inkscape"
   viewBox="0 0 100 100"
   x="0px"
   y="0px"
   version="1.1"
   id="svg428"
   sodipodi:docname="answer_questiontilt.svg"
   width="100"
   height="100"
   inkscape:version="0.92.5 (2060ec1f9f, 2020-04-08)">
  <metadata
     id="metadata434">
    <rdf:RDF>
      <cc:Work
         rdf:about="">
        <dc:format>image/svg+xml</dc:format>
        <dc:type
           rdf:resource="http://purl.org/dc/dcmitype/StillImage" />
        <dc:title></dc:title>
      </cc:Work>
    </rdf:RDF>
  </metadata>
  <defs
     id="defs432" />
  <sodipodi:namedview
     pagecolor="#ffffff"
     bordercolor="#666666"
     borderopacity="1"
     objecttolerance="10"
     gridtolerance="10"
     guidetolerance="10"
     inkscape:pageopacity="0"
     inkscape:pageshadow="2"
     inkscape:window-width="1918"
     inkscape:window-height="1030"
     id="namedview430"
     showgrid="false"
     inkscape:zoom="2.95"
     inkscape:cx="32"
     inkscape:cy="40"
     inkscape:window-x="0"
     inkscape:window-y="25"
     inkscape:window-maximized="0"
     inkscape:current-layer="svg428" />
  <g
     id="g422"
     transform="matrix(1.6080754,0,0,1.6509204,-2.4477482,-2.9967556)">
    <g
       data-name="Glyph"
       id="g420">
      <path
         d="m 32,2 a 30,30 0 1 0 15.957,55.406 l 12.707,4.535 a 1,1 0 0 0 1.278,-1.277 L 57.407,47.956 A 30,30 0 0 0 32,2 Z M 8.85,35 A 2.993,2.993 0 0 1 8.208,29.082 24.111,24.111 0 0 1 32,8 23.8,23.8 0 0 1 48.968,15.034 1,1 0 0 1 47.552,16.446 21.817,21.817 0 0 0 32,10 22.1,22.1 0 0 0 10.19,29.333 2.973,2.973 0 0 1 11.85,32 a 3,3 0 0 1 -3,3 z M 32,41 a 2,2 0 0 1 -2,-2 v -7.2 a 2,2 0 0 1 2,-2 5,5 0 1 0 -5,-5 2,2 0 1 1 -4,0 9,9 0 1 1 11,8.776 V 39 a 2,2 0 0 1 -2,2 z m 2,6 a 2,2 0 1 1 -2,-2 2,2 0 0 1 2,2 z M 55.807,34.828 A 24.128,24.128 0 0 1 32,56 23.8,23.8 0 0 1 15.032,48.966 1,1 0 1 1 16.448,47.554 21.817,21.817 0 0 0 32,54 22.114,22.114 0 0 0 53.794,34.8 a 3.007,3.007 0 1 1 2.013,0.03 z"
         id="path414"
         inkscape:connector-curvature="0" />
      <path
         d="m 54.85,31.01 a 1,1 0 1 0 0,1.99 v 0.019 h 0.031 V 33 a 1,1 0 0 0 -0.032,-1.99 z"
         id="path416"
         inkscape:connector-curvature="0" />
      <path
         d="M 8.98,31.024 A 0.816,0.816 0 0 1 8.842,31 1.011,1.011 0 0 0 7.85,32 a 1,1 0 0 0 2,0 0.979,0.979 0 0 0 -0.87,-0.976 z"
         id="path418"
         inkscape:connector-curvature="0" />
    </g>
  </g>
  <text
     x="-0.028268944"
     y="128.50993"
     font-size="5px"
     font-weight="bold"
     id="text424"
     style="font-weight:bold;font-size:6.87328196px;font-family:'Helvetica Neue', Helvetica, Arial-Unicode, Arial, Sans-serif;fill:#000000;stroke-width:1.37465644"
     transform="scale(1.0300631,0.97081435)">Created by Flowicon</text>
  <text
     x="-0.028268944"
     y="135.38321"
     font-size="5px"
     font-weight="bold"
     id="text426"
     style="font-weight:bold;font-size:6.87328196px;font-family:'Helvetica Neue', Helvetica, Arial-Unicode, Arial, Sans-serif;fill:#000000;stroke-width:1.37465644"
     transform="scale(1.0300631,0.97081435)">from the Noun Project</text>
</svg>
