<?xml version="1.0" encoding="UTF-8" standalone="no"?>
<!-- Created with Inkscape (http://www.inkscape.org/) -->

<svg
   xmlns:dc="http://purl.org/dc/elements/1.1/"
   xmlns:cc="http://creativecommons.org/ns#"
   xmlns:rdf="http://www.w3.org/1999/02/22-rdf-syntax-ns#"
   xmlns:svg="http://www.w3.org/2000/svg"
   xmlns="http://www.w3.org/2000/svg"
   xmlns:sodipodi="http://sodipodi.sourceforge.net/DTD/sodipodi-0.dtd"
   xmlns:inkscape="http://www.inkscape.org/namespaces/inkscape"
   width="296"
   height="200"
   viewBox="0 0 210 297"
   version="1.1"
   id="svg83"
   inkscape:version="0.92.5 (2060ec1f9f, 2020-04-08)"
   sodipodi:docname="delete.svg">
  <defs
     id="defs77" />
  <sodipodi:namedview
     id="base"
     pagecolor="#ffffff"
     bordercolor="#666666"
     borderopacity="1.0"
     inkscape:pageopacity="0.0"
     inkscape:pageshadow="2"
     inkscape:zoom="1.979899"
     inkscape:cx="101.1181"
     inkscape:cy="159.15354"
     inkscape:document-units="mm"
     inkscape:current-layer="svg83"
     showgrid="false"
     showguides="true"
     inkscape:window-width="1920"
     inkscape:window-height="1031"
     inkscape:window-x="0"
     inkscape:window-y="25"
     inkscape:window-maximized="1">
    <inkscape:grid
       type="xygrid"
       id="grid3788" />
  </sodipodi:namedview>
  <metadata
     id="metadata80">
    <rdf:RDF>
      <cc:Work
         rdf:about="">
        <dc:format>image/svg+xml</dc:format>
        <dc:type
           rdf:resource="http://purl.org/dc/dcmitype/StillImage" />
        <dc:title />
      </cc:Work>
    </rdf:RDF>
  </metadata>
  <g
     inkscape:label="Layer 1"
     inkscape:groupmode="layer"
     id="layer1" />
  <g
     id="g3900"
     transform="matrix(0.69046901,0,0,0.5255165,-58.114823,11.72572)">
    <title
       id="title3891">Layer 1</title>
    <g
       id="svg_1">
      <path
         d="M 464.7,138 448.8,78.1 c -1.5,-5.7 -6.7,-9.7 -12.6,-9.7 H 332.8 C 329.8,30.2 297.8,0 258.9,0 h -5.8 C 214.2,0 182.2,30.2 179.2,68.4 H 147.1 75.9 c -5.9,0 -11.1,4 -12.6,9.7 l -16,59.9 c -1.1,4 -0.2,8.1 2.3,11.3 2.5,3.2 6.3,5.1 10.4,5.1 h 9 l 27.9,325.1 c 1.6,18.5 16.8,32.5 35.4,32.5 h 249.4 c 18.6,0 33.8,-14 35.4,-32.5 L 432.6,296 c 0,0 0,-0.1 0,-0.1 l 12.1,-141.5 h 7.3 c 4.1,0 7.9,-1.9 10.4,-5.1 2.5,-3.2 3.4,-7.4 2.3,-11.3 z M 253.1,15.1 h 5.8 c 30,0 54.8,22.5 58.5,51.5 h -22 c -2.6,-19.4 -19.3,-34.4 -39.5,-34.4 -20.1,0 -36.8,15 -39.5,34.4 h -22 c 3.9,-29 28.7,-51.5 58.7,-51.5 z m 27.4,53.3 h -49 c 1.8,-11.9 12.1,-21.1 24.5,-21.1 12.4,0 22.7,9.1 24.5,21.1 z M 401.9,478.3 C 401,488.9 392.2,497 381.6,497 H 132.1 c -10.7,0 -19.4,-8 -20.3,-18.7 L 84,154.4 h 345.6 l -9.4,109.2 c 0,0 0,0.1 0,0.1 z m 36,-339 H 75.9 62.5 L 77.4,83.4 h 69.8 43.6 243.8 l 14.9,55.9 z"
         id="svg_2"
         inkscape:connector-curvature="0" />
      <path
         d="m 154.7,189.7 c -0.4,-4.1 -4,-7.2 -8.2,-6.9 -4.1,0.4 -7.2,4 -6.9,8.2 l 23.2,270.6 c 0.3,3.9 3.6,6.9 7.5,6.9 0.2,0 0.4,0 0.7,0 4.1,-0.4 7.2,-4 6.9,-8.2 z"
         id="svg_3"
         inkscape:connector-curvature="0" />
      <path
         d="m 365.5,182.9 c -4.1,-0.4 -7.8,2.7 -8.2,6.9 l -23.2,270.6 c -0.4,4.2 2.7,7.8 6.9,8.2 0.2,0 0.4,0 0.7,0 3.9,0 7.2,-3 7.5,-6.9 L 372.3,191 c 0.4,-4.1 -2.7,-7.8 -6.8,-8.1 z"
         id="svg_4"
         inkscape:connector-curvature="0" />
      <path
         d="m 256,182.8 c -4.2,0 -7.5,3.4 -7.5,7.5 V 461 c 0,4.2 3.4,7.5 7.5,7.5 4.2,0 7.5,-3.4 7.5,-7.5 V 190.4 c 0,-4.2 -3.3,-7.6 -7.5,-7.6 z"
         id="svg_5"
         inkscape:connector-curvature="0" />
    </g>
    <text
       x="-0.54313684"
       y="589.08496"
       font-size="5px"
       font-weight="bold"
       id="svg_6"
       style="font-weight:bold;font-size:5px;font-family:'Helvetica Neue', Helvetica, Arial-Unicode, Arial, Sans-serif;fill:#000000">Created by Muhammad Auns</text>
    <text
       x="0"
       y="594.57111"
       font-size="5px"
       font-weight="bold"
       id="svg_7"
       style="font-weight:bold;font-size:5px;font-family:'Helvetica Neue', Helvetica, Arial-Unicode, Arial, Sans-serif;fill:#000000">from the Noun Project</text>
  </g>
  <path
     style="fill:#b3b3b3;stroke-width:0.54061806"
     d="m 27.681122,271.67822 c -3.722327,-1.28342 -6.271174,-3.29299 -7.388644,-5.82537 -0.664029,-1.5048 -3.52372,-25.23656 -10.407511,-86.36899 C 4.664423,133.12212 0.3930703,94.73259 0.3930703,94.17377 c 0,-0.99222 2.7873407,-1.01602 118.9897297,-1.01602 h 118.98973 l -0.27931,1.48248 c -0.15362,0.81536 -4.52114,39.36457 -9.7056,85.66491 -6.40715,57.21964 -9.68295,84.6731 -10.22767,85.7144 -1.05185,2.01076 -2.79127,3.54753 -5.78381,5.10995 l -2.4397,1.27378 -89.72686,0.12046 c -85.028783,0.11411 -89.873534,0.0699 -92.528458,-0.84551 z M 62.760097,257.2991 c 0.875437,-0.45014 1.739276,-1.40314 1.919679,-2.1178 0.277179,-1.09816 -14.947809,-139.51821 -15.819269,-143.82289 -0.760112,-3.75472 -6.521716,-5.00505 -9.485168,-2.05839 -1.372336,1.36455 -1.553362,1.87458 -1.291576,3.63881 0.167439,1.12851 3.83567,33.46697 8.151602,71.86324 4.315917,38.39628 7.98228,70.23693 8.147458,70.75699 0.723132,2.27677 5.431477,3.25475 8.377274,1.74004 z m 59.037183,0.0297 c 0.84362,-0.43378 1.6854,-1.18138 1.87062,-1.66135 0.18523,-0.47997 0.33677,-33.37062 0.33677,-73.09036 v -72.2177 l -1.33074,-1.3232 c -0.97962,-0.97406 -1.91657,-1.32321 -3.55095,-1.32321 -2.50026,0 -5.11941,1.14087 -5.62464,2.45003 -0.18523,0.47996 -0.33678,33.25697 -0.33678,72.83778 v 71.96514 l 1.58476,1.57577 c 1.81158,1.80132 4.49577,2.10096 7.05096,0.78711 z m 58.79447,0.27541 c 0.74673,-0.28231 1.63353,-1.02572 1.97062,-1.65202 0.3371,-0.62631 4.12569,-32.47759 8.41908,-70.78062 4.29339,-38.30303 7.95139,-70.67617 8.12888,-71.94032 0.28733,-2.04648 0.14527,-2.47492 -1.29637,-3.90836 -2.10054,-2.08865 -5.75387,-2.27156 -7.92859,-0.39698 l -1.40716,1.21294 -8.13538,72.22712 c -6.51807,57.86856 -8.01035,72.45935 -7.50654,73.3954 1.14264,2.12296 4.74821,2.9797 7.75546,1.84283 z"
     id="path3957"
     inkscape:connector-curvature="0" />
  <path
     style="fill:#b3b3b3;stroke-width:0.54061806"
     d="m -14.245146,84.061914 c 0,-0.258767 2.168024,-6.6267 4.8178341,-14.150962 l 4.8178345,-13.680479 123.2838074,-0.135924 123.2838,-0.135925 2.04137,6.06586 c 1.12275,3.336222 3.34728,9.765325 4.94338,14.286893 l 2.90202,8.221036 H 118.79987 c -75.402506,0 -133.045016,-0.20384 -133.045016,-0.470484 z"
     id="path3959"
     inkscape:connector-curvature="0" />
  <path
     style="fill:#b3b3b3;stroke-width:0.54061806"
     d="M 76.942148,44.235847 C 79.750805,34.093416 90.76245,24.88798 104.21598,21.435674 c 5.60871,-1.43925 16.26952,-1.951317 22.77056,-1.093732 6.17994,0.815229 13.37345,3.192562 18.35231,6.065128 6.87329,3.965571 13.1691,11.501978 14.89392,17.828777 l 0.55112,2.021567 h -7.47871 -7.47872 L 145.4742,44.50539 c -0.19375,-0.963613 -1.18181,-2.994443 -2.19569,-4.512954 -8.72522,-13.067994 -31.81967,-15.444743 -45.20251,-4.651985 -2.77781,2.2402 -5.88998,6.708104 -6.38396,9.164939 l -0.35226,1.752024 h -7.478722 -7.478717 z"
     id="path3961"
     inkscape:connector-curvature="0" />
</svg>
