<?xml version="1.0" encoding="UTF-8" standalone="no"?>
<!-- Created with Inkscape (http://www.inkscape.org/) -->

<svg
   xmlns:dc="http://purl.org/dc/elements/1.1/"
   xmlns:cc="http://creativecommons.org/ns#"
   xmlns:rdf="http://www.w3.org/1999/02/22-rdf-syntax-ns#"
   xmlns:svg="http://www.w3.org/2000/svg"
   xmlns="http://www.w3.org/2000/svg"
   xmlns:sodipodi="http://sodipodi.sourceforge.net/DTD/sodipodi-0.dtd"
   xmlns:inkscape="http://www.inkscape.org/namespaces/inkscape"
   width="296"
   height="200"
   viewBox="0 0 210 297"
   version="1.1"
   id="svg83"
   inkscape:version="0.92.5 (2060ec1f9f, 2020-04-08)"
   sodipodi:docname="let_button.svg">
  <defs
     id="defs77" />
  <sodipodi:namedview
     id="base"
     pagecolor="#ffffff"
     bordercolor="#666666"
     borderopacity="1.0"
     inkscape:pageopacity="0.0"
     inkscape:pageshadow="2"
     inkscape:zoom="1.4"
     inkscape:cx="132.95819"
     inkscape:cy="143.88427"
     inkscape:document-units="mm"
     inkscape:current-layer="svg83"
     showgrid="false"
     showguides="true"
     inkscape:window-width="1920"
     inkscape:window-height="1031"
     inkscape:window-x="0"
     inkscape:window-y="25"
     inkscape:window-maximized="1">
    <inkscape:grid
       type="xygrid"
       id="grid3788" />
  </sodipodi:namedview>
  <metadata
     id="metadata80">
    <rdf:RDF>
      <cc:Work
         rdf:about="">
        <dc:format>image/svg+xml</dc:format>
        <dc:type
           rdf:resource="http://purl.org/dc/dcmitype/StillImage" />
        <dc:title></dc:title>
      </cc:Work>
    </rdf:RDF>
  </metadata>
  <g
     inkscape:label="Layer 1"
     inkscape:groupmode="layer"
     id="layer1" />
  <g
     id="g904"
     transform="matrix(3.3992576,0,0,2.2676049,-112.2343,3.009248)">
    <path
       id="path884"
       d="M 97.87,85.95 C 97.35029,82.232 96.85053,78.56407 96.34089,74.89617 L 85.459,85.76807 82.58009,91.10791 a 5.96768,5.96768 0 0 1 -3.623,2.92578 l -11.9317,3.43067 A 6.13415,6.13415 0 0 1 65.37012,97.7002 5.96459,5.96459 0 0 1 61.19,96 H 35.68 a 2,2 0 0 1 0,-4 h 23.7 c 6.7e-4,0.01233 0.0045,0.02411 0.0052,0.03644 a 5.94408,5.94408 0 0 1 0.21338,-2.00128 l 0.58374,-2.02277 C 60.16919,88.00873 60.15698,88.00391 60.14398,88 H 34.51 a 2,2 0 0 1 0,-4 h 26.83 l -0.0037,0.01276 4.3e-4,-6e-5 1.147,-3.97412 C 62.457,80.027 62.433,80.01288 62.40741,80 H 33.36 a 2,2 0 1 1 0,-4 h 30.78 c -0.01514,0.01874 -0.02478,0.04156 -0.03967,0.06049 a 5.94843,5.94843 0 0 1 1.87036,-1.57172 l 4.62018,-2.474 L 70.58789,72 H 32.22 a 2,2 0 1 1 0,-4 H 74.93 L 74.9269,68.0031 74.93709,68.001 78.92873,64.01382 78.9104,64 H 31.13 a 2,2 0 0 1 0,-4 h 51.81 l -0.0152,0.0152 0.0059,0.0012 10.22919,-10.21771 C 91.9,38.66913 90.9,27.54956 90.4,16.17 90.23,12.29 89.71,0.72 80.91,0.03 80.8,0.02 80.7,0 80.58,0 H 9.8 C 4.3,0 0,7.47 0,17 0,26.53 4.3,34 9.8,34 a 2,2 0 0 0 0,-4 C 7.06,30 4,24.44 4,17 4,9.56 7.06,4 9.8,4 c 4.05,0 6.03,3.81 6.41,12.34 1.06,23.73 4.23,46.24 7.58,70.08 l 0.63,4.43 c 0.93,6.34 3.74,25.64 -1.4,31.58 A 4.30838,4.30838 0 0 1 19.54,124 c -2.73,0 -5.79,-5.56 -5.79,-13 0,-7.44 3.06,-13 5.79,-13 a 2,2 0 0 0 0,-4 c -5.49,0 -9.8,7.47 -9.8,17 0,9.53 4.31,17 9.8,17 h 71.05 a 1.88494,1.88494 0 0 0 0.72,-0.14 c 3.64,-0.64 7.55,-3.74 8.54,-13.66 0.85,-8.49005 -0.65,-18.88 -1.37,-23.88 z M 83.5,56 H 30.09 a 2,2 0 1 1 0,-4 H 83.5 a 2,2 0 0 1 0,4 z M 27.14,46 a 2.00583,2.00583 0 0 1 2,-2 h 53.41 a 2,2 0 0 1 0,4 H 29.14 a 2.00587,2.00587 0 0 1 -2,-2 z M 19.8817,12.02234 A 19.50466,19.50466 0 0 0 17.26331,4 h 62.81793 c 3.23389,0 5.12659,2.50427 5.93079,8.00055 z M 27.03,20 h 53.4 a 2,2 0 1 1 0,4 h -53.4 a 2,2 0 1 1 0,-4 z m -1.45,10 a 2.00583,2.00583 0 0 1 2,-2 h 53.41 a 2,2 0 0 1 0,4 H 27.58 a 2.00587,2.00587 0 0 1 -2,-2 z m 2.73,6 h 53.4 a 2,2 0 1 1 0,4 h -53.4 a 2,2 0 1 1 0,-4 z m 61.4,88 H 26.82 a 19.48136,19.48136 0 0 0 2.73,-8 h 66.03 c -1.32,7.99 -4.7,8 -5.87,8 z"
       inkscape:connector-curvature="0" />
    <path
       id="path886"
       d="m 126.24,30.89 a 5.99928,5.99928 0 0 0 -8.49,0 L 93.13,55.48 73.86,74.73 a 1.25544,1.25544 0 0 0 -0.09,0.12 l -5.92,3.17 a 1.99387,1.99387 0 0 0 -0.97,1.21 l -3.44,11.92 a 2.00614,2.00614 0 0 0 1.93,2.55 2.09053,2.09053 0 0 0 0.55,-0.08 l 11.93,-3.43 a 1.97538,1.97538 0 0 0 1.21,-0.98 l 3.18,-5.9 a 1.05325,1.05325 0 0 0 0.12,-0.1 l 10.68,-10.67 33.2,-33.17 a 5.98723,5.98723 0 0 0 0,-8.48 z m -2.83057,5.65393 v 4.9e-4 l -42.46985,42.42579 -2.831,-2.82812 42.46985,-42.42676 a 2.001,2.001 0 1 1 2.831,2.82861 z"
       inkscape:connector-curvature="0" />
    <text
       id="text888"
       font-weight="bold"
       font-size="5px"
       y="143"
       x="0"
       style="font-weight:bold;font-size:5px;font-family:'Helvetica Neue', Helvetica, Arial-Unicode, Arial, Sans-serif;fill:#000000">Created by WEBTECHOPS LLP</text>
    <text
       id="text890"
       font-weight="bold"
       font-size="5px"
       y="148"
       x="0"
       style="font-weight:bold;font-size:5px;font-family:'Helvetica Neue', Helvetica, Arial-Unicode, Arial, Sans-serif;fill:#000000">from the Noun Project</text>
  </g>
</svg>
