<svg xmlns="http://www.w3.org/2000/svg" xmlns:xlink="http://www.w3.org/1999/xlink" version="1.1" x="0px" y="0px" viewBox="0 0 100 125" enable-background="new 0 0 100 100" xml:space="preserve"><g><line fill="none" x1="-3319.667" y1="1861.604" x2="-3319.667" y2="1844.477"/><path d="M-3319.667,1864.604c-1.657,0-3-1.343-3-3v-17.128c0-1.657,1.343-3,3-3s3,1.343,3,3v17.128   C-3316.667,1863.262-3318.01,1864.604-3319.667,1864.604z"/></g><g><line fill="none" x1="-3301.486" y1="1861.604" x2="-3301.486" y2="1829.382"/><path d="M-3301.486,1864.604c-1.657,0-3-1.343-3-3v-32.223c0-1.657,1.343-3,3-3s3,1.343,3,3v32.223   C-3298.486,1863.262-3299.829,1864.604-3301.486,1864.604z"/></g><g><line fill="none" x1="-3283.305" y1="1861.604" x2="-3283.305" y2="1813.125"/></g><g><g><g><path d="M-3256.098,1846.671c-1.657,0-3-1.343-3-3v-9.441c0-1.657,1.343-3,3-3s3,1.343,3,3v9.441     C-3253.098,1845.328-3254.441,1846.671-3256.098,1846.671z"/></g><g><path d="M-3256.1,1854.95c-0.79,0-1.56-0.32-2.12-0.881c-0.56-0.56-0.88-1.329-0.88-2.119s0.32-1.561,0.88-2.12     c1.11-1.12,3.13-1.12,4.24,0c0.56,0.55,0.88,1.33,0.88,2.12s-0.32,1.56-0.88,2.119     C-3254.54,1854.63-3255.31,1854.95-3256.1,1854.95z"/></g></g></g><g><line fill="none" x1="-3265.124" y1="1829.382" x2="-3265.124" y2="1797.74"/></g><g><line fill="none" x1="-3246.943" y1="1830.405" x2="-3246.943" y2="1782.354"/><path fill="#000000" d="M-3227.54,1860.34l-16.4-30.68v-47.31c0-1.65-1.35-3-3-3c-1.66,0-3,1.35-3,3v36.09l-3.51-6.57   c-0.52-0.98-1.54-1.59-2.65-1.59s-2.12,0.61-2.64,1.59l-3.38,6.32v-20.45c0-1.66-1.35-3-3-3c-1.66,0-3,1.34-3,3v31.67l-12.18,22.78   v-39.07c0-1.65-1.35-3-3-3c-1.66,0-3,1.35-3,3v48.48c0,1.66,1.34,3,3,3c0.1,0,0.2-0.01,0.3-0.02c0.31,0.11,0.65,0.17,0.99,0.17   h51.83c1.05,0,2.03-0.55,2.57-1.46C-3227.07,1862.39-3227.04,1861.27-3227.54,1860.34z M-3277.01,1858.75l20.91-39.11l6.5,12.16   c0.01,0.02,0.03,0.05,0.04,0.07l14.37,26.88H-3277.01z"/></g><g><path fill="#000000" d="M82.4,95H17.6c-1.75,0-3.168-1.418-3.168-3.168V62.059c0-1.75,1.418-3.168,3.168-3.168H82.4   c1.75,0,3.168,1.418,3.168,3.168v29.773C85.568,93.582,84.15,95,82.4,95z M20.768,88.664h58.463V65.227H20.768V88.664z"/></g><g><path fill="#000000" d="M82.4,41.109H17.6c-1.75,0-3.168-1.418-3.168-3.168V8.168C14.432,6.418,15.85,5,17.6,5H82.4   c1.75,0,3.168,1.418,3.168,3.168v29.773C85.568,39.691,84.15,41.109,82.4,41.109z M20.768,34.773h58.463V11.336H20.768V34.773z"/></g><g><g><path fill="#000000" d="M13.509,52.112h-2.323c-1.166,0-2.112-0.946-2.112-2.112s0.946-2.112,2.112-2.112h2.323    c1.166,0,2.112,0.946,2.112,2.112S14.675,52.112,13.509,52.112z"/></g><g><path fill="#000000" d="M77.85,52.112h-4.226c-1.166,0-2.112-0.946-2.112-2.112s0.946-2.112,2.112-2.112h4.226    c1.166,0,2.112,0.946,2.112,2.112S79.016,52.112,77.85,52.112z M64.981,52.112h-4.226c-1.166,0-2.112-0.946-2.112-2.112    s0.946-2.112,2.112-2.112h4.226c1.166,0,2.112,0.946,2.112,2.112S66.148,52.112,64.981,52.112z M52.113,52.112h-4.225    c-1.166,0-2.112-0.946-2.112-2.112s0.946-2.112,2.112-2.112h4.225c1.166,0,2.112,0.946,2.112,2.112S53.279,52.112,52.113,52.112z     M39.244,52.112H35.02c-1.166,0-2.112-0.946-2.112-2.112s0.946-2.112,2.112-2.112h4.225c1.166,0,2.112,0.946,2.112,2.112    S40.411,52.112,39.244,52.112z M26.377,52.112h-4.226c-1.166,0-2.112-0.946-2.112-2.112s0.946-2.112,2.112-2.112h4.226    c1.166,0,2.112,0.946,2.112,2.112S27.543,52.112,26.377,52.112z"/></g><g><path fill="#000000" d="M88.815,52.112h-2.322c-1.166,0-2.112-0.946-2.112-2.112s0.946-2.112,2.112-2.112h2.322    c1.166,0,2.112,0.946,2.112,2.112S89.981,52.112,88.815,52.112z"/></g></g><text x="0" y="115" fill="#000000" font-size="5px" font-weight="bold" font-family="'Helvetica Neue', Helvetica, Arial-Unicode, Arial, Sans-serif">Created by Garrett Knoll</text><text x="0" y="120" fill="#000000" font-size="5px" font-weight="bold" font-family="'Helvetica Neue', Helvetica, Arial-Unicode, Arial, Sans-serif">from the Noun Project</text></svg>