<svg xmlns="http://www.w3.org/2000/svg" xmlns:xlink="http://www.w3.org/1999/xlink" xml:space="preserve" style="shape-rendering:geometricPrecision;text-rendering:geometricPrecision;image-rendering:optimizeQuality;" viewBox="0 0 4.9028 6.08175" x="0px" y="0px" fill-rule="evenodd" clip-rule="evenodd"><defs><style type="text/css">
   
    .fil0 {fill:black}
   
  </style></defs><g><path class="fil0" d="M4.805 1.5539l-0.9617 0 0 -0.3904 0.4675 0c0.063,0 0.1145,-0.0515 0.1145,-0.1145l0 -0.9344c0,-0.063 -0.0515,-0.1146 -0.1145,-0.1146l-1.6435 0c-0.063,0 -0.1145,0.0516 -0.1145,0.1146l0 0.9344c0,0.063 0.0515,0.1145 0.1145,0.1145l0.4675 0 0 0.3904 -0.9617 0c-0.0538,0 -0.0978,0.044 -0.0978,0.0978l0 0.2422 2.8275 0 0 -0.2422c0,-0.0538 -0.044,-0.0978 -0.0978,-0.0978zm-2.7297 0.433l0 2.7807c0,0.0538 0.044,0.0978 0.0978,0.0978l2.6319 0c0.0538,0 0.0978,-0.044 0.0978,-0.0978l0 -2.7807 -2.8275 0z"/><path class="fil0" d="M1.7069 2.7703l-0.6014 0 0 -0.2441 0.2923 0c0.0394,0 0.0716,-0.0322 0.0716,-0.0717l0 -0.5842c0,-0.0394 -0.0322,-0.0716 -0.0716,-0.0716l-1.0276 0c-0.0394,0 -0.0716,0.0322 -0.0716,0.0716l0 0.5842c0,0.0395 0.0322,0.0717 0.0716,0.0717l0.2923 0 0 0.2441 -0.6014 0c-0.0336,0 -0.0611,0.0275 -0.0611,0.0611l0 0.1515 1.768 0 0 -0.1515c0,-0.0336 -0.0275,-0.0611 -0.0611,-0.0611zm-1.7069 0.2707l0 1.7387c0,0.0337 0.0275,0.0612 0.0611,0.0612l1.6458 0c0.0336,0 0.0611,-0.0275 0.0611,-0.0612l0 -1.7387 -1.768 0z"/></g><text x="0" y="19.8654" fill="#000000" font-size="5px" font-weight="bold" font-family="'Helvetica Neue', Helvetica, Arial-Unicode, Arial, Sans-serif">Created by sarah</text><text x="0" y="24.8654" fill="#000000" font-size="5px" font-weight="bold" font-family="'Helvetica Neue', Helvetica, Arial-Unicode, Arial, Sans-serif">from the Noun Project</text></svg>