<svg xmlns="http://www.w3.org/2000/svg" xmlns:xlink="http://www.w3.org/1999/xlink" version="1.1" x="0px" y="0px" viewBox="0 0 512 640" style="enable-background:new 0 0 512 512;" xml:space="preserve"><g><path d="M464.7,138l-15.9-59.9c-1.5-5.7-6.7-9.7-12.6-9.7H332.8C329.8,30.2,297.8,0,258.9,0h-5.8c-38.9,0-70.9,30.2-73.9,68.4   h-32.1H75.9c-5.9,0-11.1,4-12.6,9.7L47.3,138c-1.1,4-0.2,8.1,2.3,11.3c2.5,3.2,6.3,5.1,10.4,5.1h9l27.9,325.1   c1.6,18.5,16.8,32.5,35.4,32.5h249.4c18.6,0,33.8-14,35.4-32.5L432.6,296c0,0,0-0.1,0-0.1l12.1-141.5h7.3c4.1,0,7.9-1.9,10.4-5.1   C464.9,146.1,465.8,141.9,464.7,138z M253.1,15.1h5.8c30,0,54.8,22.5,58.5,51.5h-22c-2.6-19.4-19.3-34.4-39.5-34.4   c-20.1,0-36.8,15-39.5,34.4h-22C198.3,37.6,223.1,15.1,253.1,15.1z M280.5,68.4h-49c1.8-11.9,12.1-21.1,24.5-21.1   S278.7,56.4,280.5,68.4z M401.9,478.3c-0.9,10.6-9.7,18.7-20.3,18.7H132.1c-10.7,0-19.4-8-20.3-18.7L84,154.4h345.6l-9.4,109.2   c0,0,0,0.1,0,0.1L401.9,478.3z M437.9,139.3h-362H62.5l14.9-55.9h69.8h43.6h243.8l14.9,55.9H437.9z"/><path d="M154.7,189.7c-0.4-4.1-4-7.2-8.2-6.9c-4.1,0.4-7.2,4-6.9,8.2l23.2,270.6c0.3,3.9,3.6,6.9,7.5,6.9c0.2,0,0.4,0,0.7,0   c4.1-0.4,7.2-4,6.9-8.2L154.7,189.7z"/><path d="M365.5,182.9c-4.1-0.4-7.8,2.7-8.2,6.9l-23.2,270.6c-0.4,4.2,2.7,7.8,6.9,8.2c0.2,0,0.4,0,0.7,0c3.9,0,7.2-3,7.5-6.9   L372.3,191C372.7,186.9,369.6,183.2,365.5,182.9z"/><path d="M256,182.8c-4.2,0-7.5,3.4-7.5,7.5V461c0,4.2,3.4,7.5,7.5,7.5c4.2,0,7.5-3.4,7.5-7.5V190.4   C263.5,186.2,260.2,182.8,256,182.8z"/></g><text x="0" y="527" fill="#000000" font-size="5px" font-weight="bold" font-family="'Helvetica Neue', Helvetica, Arial-Unicode, Arial, Sans-serif">Created by Muhammad Auns</text><text x="0" y="532" fill="#000000" font-size="5px" font-weight="bold" font-family="'Helvetica Neue', Helvetica, Arial-Unicode, Arial, Sans-serif">from the Noun Project</text></svg>