<?xml version="1.0" encoding="UTF-8" standalone="no"?>
<!-- Created with Inkscape (http://www.inkscape.org/) -->

<svg
   xmlns:dc="http://purl.org/dc/elements/1.1/"
   xmlns:cc="http://creativecommons.org/ns#"
   xmlns:rdf="http://www.w3.org/1999/02/22-rdf-syntax-ns#"
   xmlns:svg="http://www.w3.org/2000/svg"
   xmlns="http://www.w3.org/2000/svg"
   xmlns:sodipodi="http://sodipodi.sourceforge.net/DTD/sodipodi-0.dtd"
   xmlns:inkscape="http://www.inkscape.org/namespaces/inkscape"
   width="296"
   height="200"
   viewBox="0 0 210 297"
   version="1.1"
   id="svg83"
   inkscape:version="0.92.5 (2060ec1f9f, 2020-04-08)"
   sodipodi:docname="open.svg">
  <defs
     id="defs77" />
  <sodipodi:namedview
     id="base"
     pagecolor="#ffffff"
     bordercolor="#666666"
     borderopacity="1.0"
     inkscape:pageopacity="0.0"
     inkscape:pageshadow="2"
     inkscape:zoom="2.8"
     inkscape:cx="148.76852"
     inkscape:cy="90.579151"
     inkscape:document-units="mm"
     inkscape:current-layer="svg83"
     showgrid="false"
     showguides="true"
     inkscape:window-width="1920"
     inkscape:window-height="1031"
     inkscape:window-x="0"
     inkscape:window-y="25"
     inkscape:window-maximized="1">
    <inkscape:grid
       type="xygrid"
       id="grid3788" />
  </sodipodi:namedview>
  <metadata
     id="metadata80">
    <rdf:RDF>
      <cc:Work
         rdf:about="">
        <dc:format>image/svg+xml</dc:format>
        <dc:type
           rdf:resource="http://purl.org/dc/dcmitype/StillImage" />
        <dc:title></dc:title>
      </cc:Work>
    </rdf:RDF>
  </metadata>
  <g
     inkscape:label="Layer 1"
     inkscape:groupmode="layer"
     id="layer1" />
  <path
     style="fill:#ffffff;fill-opacity:1;stroke-width:0.35714287"
     d="m 80.122575,178.28168 c -1.696961,-0.51476 -3.067306,-1.75631 -3.657858,-3.31406 -0.51595,-1.36097 -0.563701,-5.27758 -0.474244,-38.89798 0.09878,-37.123629 0.104615,-37.391523 0.835827,-38.370791 0.404994,-0.542385 1.18016,-1.317513 1.722591,-1.722507 l 0.986238,-0.736353 69.885181,-0.09193 c 67.52901,-0.08883 69.92731,-0.06955 71.13456,0.572004 0.68715,0.365166 1.61097,1.193696 2.05293,1.841178 l 0.80358,1.17724 v 37.930079 37.93008 l -0.80479,1.19422 c -0.44263,0.65683 -1.36674,1.52434 -2.05357,1.92782 -1.24714,0.73263 -1.33989,0.73367 -70.35593,0.79402 -38.00893,0.0332 -69.54246,-0.0716 -70.074515,-0.23302 z"
     id="path5157"
     inkscape:connector-curvature="0"
     transform="matrix(1.485,0,0,1.485,-114.78,0)" />
  <path
     style="fill:#ffffff;fill-opacity:1;stroke-width:0.35714287"
     d="m 101.0077,65.960493 c -0.63453,-0.275843 -1.477678,-1.032947 -1.87367,-1.68245 -0.703384,-1.153683 -0.719984,-1.744983 -0.719984,-25.645197 0,-23.635343 0.02362,-24.503027 0.697157,-25.607661 1.469597,-2.410223 -2.142116,-2.249482 50.543907,-2.249482 40.42368,0 47.89326,0.0775 48.92259,0.50758 2.42252,1.012194 2.33368,-0.02903 2.33368,27.349563 0,27.257597 0.092,26.152236 -2.27039,27.273272 -1.12017,0.531553 -5.49787,0.582617 -48.85502,0.569892 -40.08234,-0.01176 -47.8073,-0.09341 -48.77827,-0.515517 z m 79.57001,-8.768783 c 0.6691,-0.358092 0.69081,-0.9413 0.69081,-18.558864 0,-17.617564 -0.0217,-18.200772 -0.69081,-18.558863 -0.43733,-0.234051 -5.14563,-0.369708 -12.83163,-0.369708 -10.56093,0 -12.21386,0.07303 -12.70205,0.561224 -0.4952,0.495195 -0.56123,2.656154 -0.56123,18.367347 0,15.711193 0.066,17.87215 0.56123,18.367347 0.48819,0.488192 2.14112,0.561225 12.70205,0.561225 7.686,0 12.3943,-0.135658 12.83163,-0.369708 z"
     id="path5159"
     inkscape:connector-curvature="0"
     transform="matrix(1.485,0,0,1.485,-114.78,0)" />
  <path
     style="fill:#ffffff;fill-opacity:1;stroke-width:0.35714287"
     d="m 80.122575,178.28168 c -1.696961,-0.51476 -3.067306,-1.75631 -3.657858,-3.31406 -0.51595,-1.36097 -0.563701,-5.27758 -0.474244,-38.89798 0.09924,-37.296201 0.101241,-37.387023 0.846598,-38.392859 0.410918,-0.554521 1.278435,-1.369828 1.927816,-1.811792 l 1.180691,-0.803571 h 69.684902 c 67.13722,0 69.73039,0.02418 70.92932,0.661289 0.68444,0.36371 1.60604,1.191048 2.048,1.83853 l 0.80358,1.17724 v 37.930083 37.93008 l -0.80479,1.19422 c -0.44263,0.65683 -1.36674,1.52434 -2.05357,1.92782 -1.24714,0.73263 -1.33989,0.73367 -70.35593,0.79402 -38.00893,0.0332 -69.54246,-0.0716 -70.074515,-0.23302 z"
     id="path5161"
     inkscape:connector-curvature="0"
     transform="matrix(1.485,0,0,1.485,-114.78,0)" />
  <path
     style="fill:#ffffff;fill-opacity:1;stroke-width:0.35714287"
     d="m 101.0077,65.960493 c -0.63453,-0.275843 -1.477678,-1.032947 -1.87367,-1.68245 -0.70349,-1.153858 -0.719894,-1.741386 -0.716054,-25.645197 0.003,-18.854522 0.106283,-24.666563 0.450296,-25.346423 0.245502,-0.485176 0.990114,-1.248568 1.654698,-1.696429 l 1.20832,-0.814291 h 47.8158 c 40.51704,0 48.00123,0.07748 49.03061,0.50758 2.42252,1.012194 2.33368,-0.02903 2.33368,27.349563 0,27.378589 0.0888,26.337368 -2.33368,27.349564 -1.8069,0.754972 -95.83152,0.73385 -97.57,-0.02193 z m 79.91152,-9.113361 c 0.20113,-0.318439 0.34058,-7.731604 0.34383,-18.278061 0.005,-15.829061 -0.0565,-17.804277 -0.56881,-18.316631 -0.50969,-0.509687 -1.97268,-0.562772 -13.00636,-0.471939 -6.83764,0.05629 -12.56582,0.236109 -12.72929,0.399599 -0.35816,0.358206 -0.62553,31.628975 -0.2973,34.770882 0.17087,1.635643 0.38681,2.253914 0.82982,2.375928 0.32936,0.09072 6.10929,0.140411 12.84429,0.110436 10.45564,-0.04654 12.29491,-0.1328 12.58382,-0.590214 z"
     id="path5167"
     inkscape:connector-curvature="0"
     transform="matrix(1.485,0,0,1.485,-114.78,0)" />
  <path
     style="fill:#ffffff;fill-opacity:1;stroke-width:0.35714287"
     d="m 79.72702,178.11729 c -1.816262,-0.65026 -2.606513,-1.4192 -3.277283,-3.18889 -0.49632,-1.30945 -0.547625,-5.65041 -0.459264,-38.85876 0.09924,-37.296201 0.101241,-37.387023 0.846598,-38.392859 0.410918,-0.554521 1.278435,-1.369828 1.927816,-1.811792 l 1.180691,-0.803571 h 69.684902 c 67.13722,0 69.73039,0.02418 70.92932,0.661289 0.68444,0.36371 1.60604,1.191048 2.048,1.83853 l 0.80358,1.17724 v 37.930083 37.93008 l -0.80479,1.19422 c -0.44263,0.65683 -1.36674,1.52434 -2.05357,1.92782 -1.2469,0.73248 -1.35338,0.73371 -70.35593,0.80908 -57.661351,0.063 -69.332876,-0.005 -70.47007,-0.41247 z"
     id="path5169"
     inkscape:connector-curvature="0"
     transform="matrix(1.485,0,0,1.485,-114.78,0)" />
  <g
     id="g5262"
     transform="matrix(5.7443749,0,0,5.3833865,-74.045535,-28.633125)">
    <path
       id="path5173"
       d="m 15.383,24.871 c -0.552,0 -1,-0.448 -1,-1 V 12 c 0,-0.552 0.448,-1 1,-1 0.552,0 1,0.448 1,1 v 11.871 c 0,0.552 -0.446,1 -1,1 z"
       inkscape:connector-curvature="0" />
    <path
       id="path5175"
       d="m 53.486,21.854 c -0.199,0 -0.4,-0.06 -0.576,-0.183 l -4.872,-3.442 c -0.451,-0.319 -0.56,-0.943 -0.239,-1.394 0.317,-0.45 0.941,-0.558 1.395,-0.24 l 4.871,3.442 c 0.451,0.319 0.56,0.943 0.24,1.394 -0.196,0.276 -0.505,0.423 -0.819,0.423 z"
       inkscape:connector-curvature="0" />
    <path
       id="path5177"
       d="M 10.514,21.854 C 10.2,21.854 9.891,21.707 9.696,21.431 9.378,20.98 9.485,20.356 9.936,20.037 l 4.872,-3.442 c 0.451,-0.319 1.075,-0.211 1.394,0.24 0.318,0.451 0.211,1.075 -0.24,1.394 l -4.872,3.442 c -0.175,0.124 -0.378,0.183 -0.576,0.183 z"
       inkscape:connector-curvature="0" />
    <path
       id="path5179"
       d="m 8,26.88 c -0.547,0 -0.994,-0.44 -1,-0.988 -0.026,-2.3 1.066,-4.485 2.922,-5.844 0.446,-0.326 1.071,-0.229 1.397,0.216 0.327,0.446 0.23,1.071 -0.216,1.397 C 9.767,22.64 8.98,24.213 9,25.869 9.006,26.421 8.564,26.874 8.012,26.881 8.007,26.88 8.003,26.88 8,26.88 Z"
       inkscape:connector-curvature="0" />
    <path
       id="path5181"
       d="m 56,26.874 c -0.003,0 -0.007,0 -0.012,0 -0.551,-0.006 -0.994,-0.458 -0.988,-1.01 0.018,-1.654 -0.77,-3.225 -2.104,-4.202 -0.445,-0.326 -0.543,-0.952 -0.217,-1.397 0.324,-0.447 0.953,-0.543 1.397,-0.216 1.854,1.357 2.944,3.539 2.922,5.836 -0.004,0.548 -0.45,0.989 -0.998,0.989 z"
       inkscape:connector-curvature="0" />
    <path
       id="path5183"
       d="m 51.788,52.391 c -0.265,0 -0.526,-0.104 -0.724,-0.31 L 38.292,38.689 c -0.381,-0.399 -0.366,-1.033 0.033,-1.414 0.397,-0.381 1.032,-0.365 1.413,0.033 L 52.512,50.7 c 0.381,0.399 0.366,1.032 -0.033,1.413 -0.194,0.186 -0.443,0.278 -0.691,0.278 z"
       inkscape:connector-curvature="0" />
    <path
       id="path5185"
       d="m 12.21,52.391 c -0.248,0 -0.497,-0.092 -0.69,-0.275 -0.399,-0.381 -0.415,-1.014 -0.033,-1.414 L 24.26,37.311 c 0.38,-0.399 1.014,-0.416 1.414,-0.033 0.399,0.381 0.415,1.014 0.033,1.414 l -12.773,13.39 c -0.196,0.205 -0.459,0.309 -0.724,0.309 z"
       inkscape:connector-curvature="0" />
    <path
       id="path5187"
       d="m 32,41.632 c -2.325,0 -4.65,-0.713 -6.635,-2.139 -0.449,-0.322 -0.551,-0.947 -0.229,-1.396 0.322,-0.449 0.948,-0.551 1.396,-0.229 3.271,2.35 7.666,2.35 10.935,0 0.449,-0.322 1.073,-0.22 1.396,0.229 0.322,0.447 0.22,1.072 -0.229,1.396 -1.984,1.426 -4.309,2.139 -6.634,2.139 z"
       inkscape:connector-curvature="0" />
    <path
       id="path5189"
       d="m 38.053,39.682 c -0.314,0 -0.623,-0.146 -0.818,-0.423 -0.318,-0.45 -0.211,-1.075 0.24,-1.394 L 55.423,25.183 c 0.452,-0.318 1.076,-0.211 1.394,0.24 0.32,0.451 0.213,1.075 -0.238,1.394 l -17.95,12.682 c -0.177,0.123 -0.378,0.183 -0.576,0.183 z"
       inkscape:connector-curvature="0" />
    <path
       id="path5191"
       d="m 25.947,39.682 c -0.199,0 -0.401,-0.06 -0.576,-0.183 L 7.422,26.817 C 6.971,26.498 6.864,25.874 7.182,25.423 7.5,24.971 8.124,24.865 8.576,25.183 l 17.949,12.682 c 0.451,0.318 0.558,0.943 0.24,1.394 -0.195,0.276 -0.503,0.423 -0.818,0.423 z"
       inkscape:connector-curvature="0" />
    <path
       id="path5193"
       d="m 56,53 c -0.553,0 -1,-0.447 -1,-1 V 25.874 c 0,-0.552 0.447,-1 1,-1 0.553,0 1,0.448 1,1 V 52 c 0,0.553 -0.447,1 -1,1 z"
       inkscape:connector-curvature="0" />
    <path
       id="path5195"
       d="M 8,53 C 7.448,53 7,52.553 7,52 V 25.88 c 0,-0.552 0.448,-1 1,-1 0.552,0 1,0.448 1,1 V 52 c 0,0.553 -0.448,1 -1,1 z"
       inkscape:connector-curvature="0" />
    <path
       id="path5197"
       d="M 52,57 H 12 c -0.552,0 -1,-0.447 -1,-1 0,-0.553 0.448,-1 1,-1 h 40 c 0.553,0 1,0.447 1,1 0,0.553 -0.447,1 -1,1 z"
       inkscape:connector-curvature="0" />
    <path
       id="path5199"
       d="M 41.23,21 H 20.922 c -0.552,0 -1,-0.448 -1,-1 0,-0.552 0.448,-1 1,-1 H 41.23 c 0.553,0 1,0.448 1,1 0,0.552 -0.447,1 -1,1 z"
       inkscape:connector-curvature="0" />
    <path
       id="path5201"
       d="M 41.23,27 H 20.922 c -0.552,0 -1,-0.448 -1,-1 0,-0.552 0.448,-1 1,-1 H 41.23 c 0.553,0 1,0.448 1,1 0,0.552 -0.447,1 -1,1 z"
       inkscape:connector-curvature="0" />
    <path
       id="path5203"
       d="m 44.924,17 c -0.015,0 -0.027,0 -0.043,-0.001 -2.665,-0.111 -4.752,-2.371 -4.648,-5.037 0.021,-0.553 0.531,-0.976 1.037,-0.961 0.551,0.021 0.981,0.486 0.961,1.038 -0.061,1.568 1.166,2.897 2.734,2.963 0.553,0.023 0.98,0.489 0.957,1.041 C 45.898,16.579 45.457,17 44.924,17 Z"
       inkscape:connector-curvature="0" />
    <path
       id="path5205"
       d="m 35.691,15 h -14.77 c -0.552,0 -1,-0.448 -1,-1 0,-0.552 0.448,-1 1,-1 h 14.77 c 0.554,0 1,0.448 1,1 0,0.552 -0.446,1 -1,1 z"
       inkscape:connector-curvature="0" />
    <path
       id="path5207"
       d="m 48.615,17 h -3.692 c -0.553,0 -1,-0.448 -1,-1 0,-0.552 0.447,-1 1,-1 h 3.692 c 0.553,0 1,0.448 1,1 0,0.552 -0.447,1 -1,1 z"
       inkscape:connector-curvature="0" />
    <path
       id="path5209"
       d="m 41.23,13 c -0.553,0 -1,-0.448 -1,-1 V 8 c 0,-0.552 0.447,-1 1,-1 0.553,0 1,0.448 1,1 v 4 c 0,0.552 -0.447,1 -1,1 z"
       inkscape:connector-curvature="0" />
    <path
       id="path5211"
       d="m 48.615,17 c -0.27,0 -0.538,-0.108 -0.734,-0.322 l -7.385,-8 c -0.375,-0.406 -0.35,-1.039 0.057,-1.413 0.405,-0.374 1.039,-0.349 1.412,0.057 l 7.385,8 c 0.375,0.406 0.351,1.039 -0.056,1.413 C 49.102,16.912 48.857,17 48.615,17 Z"
       inkscape:connector-curvature="0" />
    <path
       id="path5213"
       d="M 41.23,9 H 19.077 c -0.552,0 -1,-0.448 -1,-1 0,-0.552 0.448,-1 1,-1 H 41.23 c 0.553,0 1,0.448 1,1 0,0.552 -0.447,1 -1,1 z"
       inkscape:connector-curvature="0" />
    <path
       id="path5215"
       d="m 15.383,13 c -0.535,0 -0.978,-0.423 -0.999,-0.961 -0.103,-2.667 1.983,-4.927 4.65,-5.038 0.547,-0.02 1.018,0.406 1.041,0.958 0.024,0.552 -0.406,1.018 -0.957,1.041 -1.568,0.065 -2.795,1.395 -2.735,2.962 0.021,0.552 -0.409,1.017 -0.96,1.038 -0.013,0 -0.027,0 -0.04,0 z"
       inkscape:connector-curvature="0" />
    <path
       id="path5217"
       d="m 48.615,32.217 c -0.553,0 -1,-0.448 -1,-1 V 16 c 0,-0.552 0.447,-1 1,-1 0.553,0 1,0.448 1,1 v 15.217 c 0,0.553 -0.447,1 -1,1 z"
       inkscape:connector-curvature="0" />
    <path
       id="path5219"
       d="m 52,57 c -0.553,0 -1,-0.447 -1,-1 0,-0.553 0.447,-1 1,-1 1.654,0 3,-1.346 3,-3 0,-0.553 0.447,-1 1,-1 0.553,0 1,0.447 1,1 0,2.757 -2.243,5 -5,5 z"
       inkscape:connector-curvature="0" />
    <path
       id="path5221"
       d="m 12,57 c -2.757,0 -5,-2.243 -5,-5 0,-0.553 0.448,-1 1,-1 0.552,0 1,0.447 1,1 0,1.654 1.346,3 3,3 0.552,0 1,0.447 1,1 0,0.553 -0.448,1 -1,1 z"
       inkscape:connector-curvature="0" />
    <text
       id="text5223"
       font-weight="bold"
       font-size="5px"
       y="79"
       x="0"
       style="font-weight:bold;font-size:5px;font-family:'Helvetica Neue', Helvetica, Arial-Unicode, Arial, Sans-serif;fill:#000000">Created by alkhalifi_design</text>
    <text
       id="text5225"
       font-weight="bold"
       font-size="5px"
       y="84"
       x="0"
       style="font-weight:bold;font-size:5px;font-family:'Helvetica Neue', Helvetica, Arial-Unicode, Arial, Sans-serif;fill:#000000">from the Noun Project</text>
  </g>
</svg>
