<?xml version="1.0" encoding="UTF-8" standalone="no"?>
<svg
   xmlns:dc="http://purl.org/dc/elements/1.1/"
   xmlns:cc="http://creativecommons.org/ns#"
   xmlns:rdf="http://www.w3.org/1999/02/22-rdf-syntax-ns#"
   xmlns:svg="http://www.w3.org/2000/svg"
   xmlns="http://www.w3.org/2000/svg"
   xmlns:sodipodi="http://sodipodi.sourceforge.net/DTD/sodipodi-0.dtd"
   xmlns:inkscape="http://www.inkscape.org/namespaces/inkscape"
   viewBox="0 0 100 100"
   x="0px"
   y="0px"
   version="1.1"
   id="svg428"
   sodipodi:docname="print_code.svg"
   width="100"
   height="100"
   inkscape:version="0.92.5 (2060ec1f9f, 2020-04-08)">
  <metadata
     id="metadata434">
    <rdf:RDF>
      <cc:Work
         rdf:about="">
        <dc:format>image/svg+xml</dc:format>
        <dc:type
           rdf:resource="http://purl.org/dc/dcmitype/StillImage" />
        <dc:title />
      </cc:Work>
    </rdf:RDF>
  </metadata>
  <defs
     id="defs432" />
  <sodipodi:namedview
     pagecolor="#ffffff"
     bordercolor="#666666"
     borderopacity="1"
     objecttolerance="10"
     gridtolerance="10"
     guidetolerance="10"
     inkscape:pageopacity="0"
     inkscape:pageshadow="2"
     inkscape:window-width="1918"
     inkscape:window-height="1030"
     id="namedview430"
     showgrid="false"
     inkscape:zoom="2.95"
     inkscape:cx="-88"
     inkscape:cy="40"
     inkscape:window-x="0"
     inkscape:window-y="25"
     inkscape:window-maximized="0"
     inkscape:current-layer="svg428" />
  <g
     id="g6"
     transform="matrix(0.15997607,0,0,0.16092448,-5.4839514,5.6192727)">
    <path
       d="M 513.33,46.668 H 186.67 c -38.594,0 -70,31.406 -70,70 v 70 h 466.67 l -0.004,-70 c 0,-38.594 -31.406,-70 -70,-70 z m -256.66,116.66 h -46.668 v -46.664 h 46.668 z m 93.332,0 h -46.668 v -46.664 h 46.668 z"
       id="path2"
       inkscape:connector-curvature="0" />
    <path
       d="m 116.67,443.33 c 0,38.594 31.406,70 70,70 h 326.67 c 38.594,0 70,-31.406 70,-70 v -210 H 116.67 Z m 263.5,-146.84 32.992,-32.992 86.496,86.496 -86.496,86.496 -32.992,-32.992 53.5,-53.504 z m -93.336,-32.992 32.992,32.992 -53.5,53.504 53.504,53.504 -32.992,32.992 -86.5,-86.496 z"
       id="path4"
       inkscape:connector-curvature="0" />
  </g>
  <path
     style="fill:#ffffff;fill-opacity:1;stroke:#ffffff;stroke-width:2.0050714;stroke-miterlimit:4;stroke-dasharray:none;stroke-opacity:1"
     d="m 28.271186,28.101695 v -3.559322 h 3.559322 3.559323 v 3.559322 3.559322 h -3.559323 -3.559322 z"
     id="path9"
     inkscape:connector-curvature="0" />
  <path
     style="fill:#ffffff;fill-opacity:1;stroke:#ffffff;stroke-width:2.0050714;stroke-miterlimit:4;stroke-dasharray:none;stroke-opacity:1"
     d="m 43.186441,28.101695 v -3.559322 h 3.559322 3.559322 v 3.559322 3.559322 h -3.559322 -3.559322 z"
     id="path11"
     inkscape:connector-curvature="0" />
  <path
     style="fill:#ffffff;fill-opacity:1;stroke:#ffffff;stroke-width:2.0050714;stroke-miterlimit:4;stroke-dasharray:none;stroke-opacity:1"
     d="m 33.563417,68.648199 -6.73531,-6.741632 6.718706,-6.83474 6.718706,-6.834739 2.558244,2.558244 2.558244,2.558244 -4.225027,4.235196 -4.225026,4.235195 1.853913,1.952423 c 1.019653,1.073833 2.918721,3.058218 4.220151,4.409745 l 2.366237,2.457321 -2.355002,2.373187 c -1.295252,1.305253 -2.436795,2.373188 -2.536764,2.373188 -0.09997,0 -3.212651,-3.033735 -6.917072,-6.741632 z"
     id="path13"
     inkscape:connector-curvature="0" />
  <path
     style="fill:#ffffff;fill-opacity:1;stroke:#ffffff;stroke-width:2.0050714;stroke-miterlimit:4;stroke-dasharray:none;stroke-opacity:1"
     d="M 58.102392,73.187142 55.5729,70.640655 59.718654,66.484924 C 61.998818,64.199272 63.864407,62.181056 63.864407,62 c 0,-0.181056 -1.866884,-2.20057 -4.148631,-4.487808 l -4.148631,-4.158616 2.541418,-2.541417 2.541417,-2.541417 6.763104,6.76945 6.763103,6.769451 -5.049644,5.179924 c -2.777303,2.848959 -5.824772,5.981855 -6.772151,6.961993 l -1.722509,1.782069 z"
     id="path15"
     inkscape:connector-curvature="0" />
</svg>
