<?xml version="1.0" encoding="UTF-8" standalone="no"?>
<svg
   xmlns:dc="http://purl.org/dc/elements/1.1/"
   xmlns:cc="http://creativecommons.org/ns#"
   xmlns:rdf="http://www.w3.org/1999/02/22-rdf-syntax-ns#"
   xmlns:svg="http://www.w3.org/2000/svg"
   xmlns="http://www.w3.org/2000/svg"
   xmlns:sodipodi="http://sodipodi.sourceforge.net/DTD/sodipodi-0.dtd"
   xmlns:inkscape="http://www.inkscape.org/namespaces/inkscape"
   viewBox="0 0 100 100"
   x="0px"
   y="0px"
   version="1.1"
   id="svg428"
   sodipodi:docname="print_image.svg"
   width="100"
   height="100"
   inkscape:version="0.92.5 (2060ec1f9f, 2020-04-08)">
  <metadata
     id="metadata434">
    <rdf:RDF>
      <cc:Work
         rdf:about="">
        <dc:format>image/svg+xml</dc:format>
        <dc:type
           rdf:resource="http://purl.org/dc/dcmitype/StillImage" />
        <dc:title />
      </cc:Work>
    </rdf:RDF>
  </metadata>
  <defs
     id="defs432" />
  <sodipodi:namedview
     pagecolor="#ffffff"
     bordercolor="#666666"
     borderopacity="1"
     objecttolerance="10"
     gridtolerance="10"
     guidetolerance="10"
     inkscape:pageopacity="0"
     inkscape:pageshadow="2"
     inkscape:window-width="1918"
     inkscape:window-height="1030"
     id="namedview430"
     showgrid="false"
     inkscape:zoom="8.34386"
     inkscape:cx="74.969593"
     inkscape:cy="40"
     inkscape:window-x="0"
     inkscape:window-y="25"
     inkscape:window-maximized="0"
     inkscape:current-layer="svg428" />
  <g
     id="g144"
     transform="matrix(0.17098972,0,0,0.16664741,-8.9580551,2.8100142)">
    <path
       d="m 559.6,86.203 c -5.2383,-5.2539 -12.359,-8.207 -19.781,-8.1953 h -375.54 c -7.4219,-0.0039 -14.543,2.9453 -19.789,8.1914 -5.25,5.25 -8.1953,12.367 -8.1914,19.789 v 354.27 c -0.004,7.4219 2.9453,14.539 8.1914,19.789 5.25,5.2461 12.367,8.1953 19.789,8.1914 h 375.54 c 7.418,0 14.535,-2.9453 19.785,-8.1953 5.2461,-5.2461 8.1953,-12.363 8.1953,-19.785 v -354.27 c 0.008,-7.4219 -2.9414,-14.543 -8.1992,-19.785 z M 279.16,167.57 c 11.82,0.004 23.156,4.6992 31.516,13.059 8.3555,8.3594 13.051,19.695 13.051,31.52 -0.004,11.82 -4.6992,23.156 -13.059,31.512 -8.3594,8.3594 -19.695,13.055 -31.516,13.051 -11.824,0 -23.16,-4.6953 -31.516,-13.055 -8.3594,-8.3594 -13.055,-19.695 -13.051,-31.516 0,-11.824 4.6953,-23.16 13.055,-31.52 8.3594,-8.3555 19.699,-13.051 31.52,-13.051 z m 224.52,223.87 c -1.8438,4.3047 -6.0859,7.0898 -10.77,7.0742 l -281.71,0.14453 c -4.4453,0.008 -8.5117,-2.4961 -10.508,-6.4688 -1.9961,-3.9688 -1.5781,-8.7266 1.0781,-12.289 l 50.363,-67.703 c 2.0391,-2.7383 5.1641,-4.4531 8.5664,-4.7031 3.4023,-0.24609 6.7461,0.99609 9.1602,3.4062 l 22.711,22.711 c 2.3984,2.4062 5.7266,3.6484 9.1133,3.4141 3.3906,-0.23438 6.5117,-1.9258 8.5586,-4.6406 l 84.961,-112.56 c 2.3984,-3.1758 6.2383,-4.918 10.207,-4.6367 3.9648,0.28125 7.5195,2.5547 9.4453,6.0352 l 88.324,159.88 v 0.004 c 1.7773,3.1719 1.9648,7 0.5,10.332 z"
       id="path70"
       inkscape:connector-curvature="0" />
    <g
       id="use72"
       transform="translate(70,602)">
      <path
         inkscape:connector-curvature="0"
         id="path502"
         d="M 9.375,-0.5625 C 8.89453,-0.3125 8.39062,-0.125 7.8594,0 7.33596,0.13281 6.7969,0.20312 6.2344,0.20312 c -1.7109,0 -3.0586,-0.47266 -4.0469,-1.4219 -0.99219,-0.95703 -1.4844,-2.25 -1.4844,-3.875 0,-1.6328 0.49219,-2.9258 1.4844,-3.875 0.98828,-0.94531 2.3359,-1.4219 4.0469,-1.4219 0.5625,0 1.1016,0.0625 1.625,0.1875 0.53125,0.125 1.0352,0.32031 1.5156,0.57812 v 2.1094 C 8.88281,-7.84769 8.39844,-8.09378 7.9219,-8.25004 7.45315,-8.40629 6.95706,-8.48442 6.4375,-8.48442 c -0.9375,0 -1.6797,0.30469 -2.2188,0.90625 -0.53125,0.60547 -0.79688,1.4336 -0.79688,2.4844 0,1.0547 0.26562,1.8828 0.79688,2.4844 0.53906,0.60547 1.2812,0.90625 2.2188,0.90625 0.51953,0 1.0156,-0.078125 1.4844,-0.23438 0.47656,-0.15625 0.96094,-0.39844 1.4531,-0.73438 z" />
    </g>
    <g
       id="use74"
       transform="translate(80.273437,602)">
      <path
         inkscape:connector-curvature="0"
         id="path510"
         d="M 6.8594,-5.5781 C 6.64846,-5.67185 6.43752,-5.73826 6.21878,-5.78122 6.00784,-5.832001 5.7969,-5.859345 5.57816,-5.859345 c -0.625,0 -1.1094,0.20312 -1.4531,0.60938 -0.33594,0.39844 -0.5,0.96875 -0.5,1.7188 v 3.5312 h -2.4531 v -7.6562 h 2.4531 v 1.25 c 0.3125,-0.5 0.67188,-0.86328 1.0781,-1.0938 0.40625,-0.22656 0.89453,-0.34375 1.4688,-0.34375 0.082031,0 0.17188,0.00781 0.26562,0.015625 0.09375,0 0.23438,0.015625 0.42188,0.046875 z" />
    </g>
    <g
       id="use76"
       transform="translate(87.179687,602)">
      <path
         inkscape:connector-curvature="0"
         id="path486"
         d="m 8.8125,-3.8438 v 0.6875 H 3.0937 c 0.0625,0.57422 0.26953,1.0078 0.625,1.2969 0.35156,0.29297 0.84766,0.4375 1.4844,0.4375 0.51953,0 1.0508,-0.078125 1.5938,-0.23438 0.53906,-0.15625 1.0938,-0.39062 1.6562,-0.70312 v 1.8906 c -0.57422,0.21875 -1.1523,0.38672 -1.7344,0.5 -0.57422,0.11328 -1.1523,0.17188 -1.7344,0.17188 -1.3867,0 -2.4648,-0.35156 -3.2344,-1.0625 -0.76172,-0.70703 -1.1406,-1.6953 -1.1406,-2.9688 0,-1.2383 0.375,-2.2188 1.125,-2.9375 0.75,-0.7187 1.7852,-1.0781 3.1094,-1.0781 1.207,0 2.1719,0.36719 2.8906,1.0938 0.71875,0.71875 1.0781,1.6875 1.0781,2.9062 z M 6.2969,-4.6563 c 0,-0.46875 -0.13672,-0.84375 -0.40625,-1.125 -0.27344,-0.28906 -0.625,-0.4375 -1.0625,-0.4375 -0.46875,0 -0.85547,0.13672 -1.1562,0.40625 -0.29297,0.26172 -0.47656,0.64844 -0.54688,1.1562 z" />
    </g>
    <g
       id="use78"
       transform="translate(96.675781,602)">
      <path
         inkscape:connector-curvature="0"
         id="path478"
         d="m 4.6094,-3.4531 c -0.51172,0 -0.89844,0.089844 -1.1562,0.26562 -0.26172,0.17969 -0.39062,0.43359 -0.39062,0.76562 0,0.3125 0.10156,0.55859 0.3125,0.73438 0.20703,0.17969 0.5,0.26562 0.875,0.26562 0.45703,0 0.84375,-0.16406 1.1562,-0.5 0.3125,-0.33203 0.46875,-0.75 0.46875,-1.25 V -3.45311 Z M 8.3438,-4.37498 V 2e-5 H 5.875 v -1.1406 c -0.32422,0.46875 -0.69531,0.8125 -1.1094,1.0312 -0.40625,0.20703 -0.90234,0.3125 -1.4844,0.3125 -0.80469,0 -1.4492,-0.22656 -1.9375,-0.6875 -0.49219,-0.46875 -0.73438,-1.0703 -0.73438,-1.8125 0,-0.89453 0.30469,-1.5508 0.92188,-1.9688 0.61328,-0.42578 1.582,-0.64062 2.9062,-0.64062 h 1.4375 v -0.1875 c 0,-0.38281 -0.15234,-0.66406 -0.45312,-0.84375 -0.30469,-0.1875 -0.77734,-0.28125 -1.4219,-0.28125 -0.53125,0 -1.0234,0.054688 -1.4688,0.15625 -0.44922,0.10547 -0.87109,0.26562 -1.2656,0.48438 v -1.875 c 0.53125,-0.125 1.0547,-0.21875 1.5781,-0.28125 0.53125,-0.070313 1.0625,-0.10938 1.5938,-0.10938 1.3828,0 2.3789,0.27734 2.9844,0.82812 0.61328,0.54297 0.92188,1.4219 0.92188,2.6406 z" />
    </g>
    <g
       id="use80"
       transform="translate(106.12109,602)">
      <path
         inkscape:connector-curvature="0"
         id="path466"
         d="m 3.8438,-9.8281 v 2.1719 H 6.375 v 1.75 H 3.8438 v 3.25 c 0,0.35547 0.066406,0.59375 0.20312,0.71875 0.14453,0.125 0.42969,0.1875 0.85938,0.1875 h 1.25 V 5e-5 H 4.0625 C 3.09375,5e-5 2.4063,-0.19526 2,-0.5937 1.60156,-0.99995 1.40625,-1.6875 1.40625,-2.6562 v -3.25 h -1.2188 v -1.75 h 1.2188 v -2.1719 z" />
    </g>
    <g
       id="use82"
       transform="translate(112.8125,602)">
      <path
         inkscape:connector-curvature="0"
         id="path490"
         d="m 8.8125,-3.8438 v 0.6875 H 3.0937 c 0.0625,0.57422 0.26953,1.0078 0.625,1.2969 0.35156,0.29297 0.84766,0.4375 1.4844,0.4375 0.51953,0 1.0508,-0.078125 1.5938,-0.23438 0.53906,-0.15625 1.0938,-0.39062 1.6562,-0.70312 v 1.8906 c -0.57422,0.21875 -1.1523,0.38672 -1.7344,0.5 -0.57422,0.11328 -1.1523,0.17188 -1.7344,0.17188 -1.3867,0 -2.4648,-0.35156 -3.2344,-1.0625 -0.76172,-0.70703 -1.1406,-1.6953 -1.1406,-2.9688 0,-1.2383 0.375,-2.2188 1.125,-2.9375 0.75,-0.7187 1.7852,-1.0781 3.1094,-1.0781 1.207,0 2.1719,0.36719 2.8906,1.0938 0.71875,0.71875 1.0781,1.6875 1.0781,2.9062 z M 6.2969,-4.6563 c 0,-0.46875 -0.13672,-0.84375 -0.40625,-1.125 -0.27344,-0.28906 -0.625,-0.4375 -1.0625,-0.4375 -0.46875,0 -0.85547,0.13672 -1.1562,0.40625 -0.29297,0.26172 -0.47656,0.64844 -0.54688,1.1562 z" />
    </g>
    <g
       id="use84"
       transform="translate(122.30859,602)">
      <path
         inkscape:connector-curvature="0"
         id="path462"
         d="m 6.3906,-6.5312 v -4.1094 H 8.8437 V 4e-4 H 6.3906 V -1.109 c -0.34375,0.44922 -0.71875,0.78125 -1.125,1 -0.40625,0.20703 -0.875,0.3125 -1.4062,0.3125 -0.9375,0 -1.7148,-0.375 -2.3281,-1.125 -0.60547,-0.75 -0.90625,-1.7188 -0.90625,-2.9062 0,-1.1758 0.30078,-2.1406 0.90625,-2.8906 0.61328,-0.75 1.3906,-1.125 2.3281,-1.125 0.53125,0 1,0.10938 1.4062,0.32812 0.40625,0.21094 0.78125,0.53906 1.125,0.98438 z m -1.625,4.9531 c 0.53125,0 0.92969,-0.19141 1.2031,-0.57812 0.28125,-0.38281 0.42188,-0.94141 0.42188,-1.6719 0,-0.72656 -0.14062,-1.2812 -0.42188,-1.6562 -0.27344,-0.38281 -0.67188,-0.57812 -1.2031,-0.57812 -0.51172,0 -0.90625,0.19531 -1.1875,0.57812 -0.27344,0.375 -0.40625,0.92969 -0.40625,1.6562 0,0.73047 0.13281,1.2891 0.40625,1.6719 0.28125,0.38672 0.67578,0.57812 1.1875,0.57812 z" />
    </g>
    <g
       id="use86"
       transform="translate(137.20312,602)">
      <path
         inkscape:connector-curvature="0"
         id="path458"
         d="m 5.25,-1.5781 c 0.51953,0 0.91406,-0.19141 1.1875,-0.57812 0.28125,-0.38281 0.42188,-0.94141 0.42188,-1.6719 0,-0.72656 -0.14062,-1.2812 -0.42188,-1.6562 C 6.16406,-5.86713 5.76953,-6.06244 5.25,-6.06244 c -0.52344,0 -0.92188,0.19531 -1.2031,0.57812 -0.28125,0.38672 -0.42188,0.9375 -0.42188,1.6562 0,0.73047 0.14062,1.2891 0.42188,1.6719 C 4.32815,-1.7695 4.72659,-1.5781 5.25,-1.5781 Z M 3.625,-6.5312 c 0.33203,-0.44531 0.70312,-0.77344 1.1094,-0.98438 0.41406,-0.21875 0.89062,-0.32812 1.4219,-0.32812 0.94531,0 1.7227,0.375 2.3281,1.125 0.60156,0.75 0.90625,1.7148 0.90625,2.8906 0,1.1875 -0.30469,2.1562 -0.90625,2.9062 -0.60547,0.75 -1.3828,1.125 -2.3281,1.125 -0.53125,0 -1.0078,-0.10547 -1.4219,-0.3125 -0.40625,-0.21875 -0.77734,-0.55078 -1.1094,-1 V 0 H 1.1719 V -10.641 H 3.625 Z" />
    </g>
    <g
       id="use88"
       transform="translate(147.22656,602)">
      <path
         inkscape:connector-curvature="0"
         id="path522"
         d="m 0.17188,-7.6562 h 2.4531 l 2.0469,5.1875 1.75,-5.1875 h 2.4531 l -3.2188,8.375 C 5.33196,1.57036 4.95306,2.1641 4.51558,2.5 4.08589,2.84375 3.51949,3.01562 2.81248,3.01562 H 1.40628 V 1.42182 H 2.1719 c 0.41406,0 0.71875,-0.070313 0.90625,-0.20312 0.1875,-0.13672 0.33203,-0.375 0.4375,-0.71875 l 0.0625,-0.20312 z" />
    </g>
    <g
       id="use90"
       transform="translate(161.22656,602)">
      <path
         inkscape:connector-curvature="0"
         id="path530"
         d="M 7.4844,-1.8594 H 3.3594 L 2.71878,0 h -2.6562 l 3.7812,-10.203 h 3.1406 L 10.76558,0 H 8.12498 Z M 4.0156,-3.75 H 6.8125 L 5.4219,-7.8125 Z" />
    </g>
    <g
       id="use92"
       transform="translate(172.0625,602)">
      <path
         inkscape:connector-curvature="0"
         id="path534"
         d="M 3.625,-1.1094 V 2.9062 H 1.1719 V -7.6558 H 3.625 v 1.125 c 0.33203,-0.44531 0.70312,-0.77344 1.1094,-0.98438 0.41406,-0.21875 0.89062,-0.32812 1.4219,-0.32812 0.94531,0 1.7227,0.375 2.3281,1.125 0.60156,0.75 0.90625,1.7148 0.90625,2.8906 0,1.1875 -0.30469,2.1562 -0.90625,2.9062 -0.60547,0.75 -1.3828,1.125 -2.3281,1.125 -0.53125,0 -1.0078,-0.10547 -1.4219,-0.3125 -0.40625,-0.21875 -0.77734,-0.55078 -1.1094,-1 z M 5.25,-6.0625 c -0.52344,0 -0.92188,0.19531 -1.2031,0.57812 -0.28125,0.38672 -0.42188,0.9375 -0.42188,1.6562 0,0.73047 0.14062,1.2891 0.42188,1.6719 0.28125,0.38672 0.67969,0.57812 1.2031,0.57812 0.51953,0 0.91406,-0.19141 1.1875,-0.57812 0.28125,-0.38281 0.42188,-0.94141 0.42188,-1.6719 0,-0.72656 -0.14062,-1.2812 -0.42188,-1.6562 C 6.16406,-5.86719 5.76953,-6.0625 5.25,-6.0625 Z" />
    </g>
    <g
       id="use94"
       transform="translate(182.08203,602)">
      <path
         inkscape:connector-curvature="0"
         id="path482"
         d="m 4.6094,-3.4531 c -0.51172,0 -0.89844,0.089844 -1.1562,0.26562 -0.26172,0.17969 -0.39062,0.43359 -0.39062,0.76562 0,0.3125 0.10156,0.55859 0.3125,0.73438 0.20703,0.17969 0.5,0.26562 0.875,0.26562 0.45703,0 0.84375,-0.16406 1.1562,-0.5 0.3125,-0.33203 0.46875,-0.75 0.46875,-1.25 V -3.45311 Z M 8.3438,-4.37498 V 2e-5 H 5.875 v -1.1406 c -0.32422,0.46875 -0.69531,0.8125 -1.1094,1.0312 -0.40625,0.20703 -0.90234,0.3125 -1.4844,0.3125 -0.80469,0 -1.4492,-0.22656 -1.9375,-0.6875 -0.49219,-0.46875 -0.73438,-1.0703 -0.73438,-1.8125 0,-0.89453 0.30469,-1.5508 0.92188,-1.9688 0.61328,-0.42578 1.582,-0.64062 2.9062,-0.64062 h 1.4375 v -0.1875 c 0,-0.38281 -0.15234,-0.66406 -0.45312,-0.84375 -0.30469,-0.1875 -0.77734,-0.28125 -1.4219,-0.28125 -0.53125,0 -1.0234,0.054688 -1.4688,0.15625 -0.44922,0.10547 -0.87109,0.26562 -1.2656,0.48438 v -1.875 c 0.53125,-0.125 1.0547,-0.21875 1.5781,-0.28125 0.53125,-0.070313 1.0625,-0.10938 1.5938,-0.10938 1.3828,0 2.3789,0.27734 2.9844,0.82812 0.61328,0.54297 0.92188,1.4219 0.92188,2.6406 z" />
    </g>
    <g
       id="use96"
       transform="translate(191.53125,602)">
      <path
         inkscape:connector-curvature="0"
         id="path526"
         d="m 0.17188,-7.6562 h 2.4531 l 2.0469,5.1875 1.75,-5.1875 h 2.4531 l -3.2188,8.375 C 5.33196,1.57036 4.95306,2.1641 4.51558,2.5 4.08589,2.84375 3.51949,3.01562 2.81248,3.01562 H 1.40628 V 1.42182 H 2.1719 c 0.41406,0 0.71875,-0.070313 0.90625,-0.20312 0.1875,-0.13672 0.33203,-0.375 0.4375,-0.71875 l 0.0625,-0.20312 z" />
    </g>
    <g
       id="use98"
       transform="translate(205.53125,602)">
      <path
         inkscape:connector-curvature="0"
         id="path506"
         d="M 9.375,-0.5625 C 8.89453,-0.3125 8.39062,-0.125 7.8594,0 7.33596,0.13281 6.7969,0.20312 6.2344,0.20312 c -1.7109,0 -3.0586,-0.47266 -4.0469,-1.4219 -0.99219,-0.95703 -1.4844,-2.25 -1.4844,-3.875 0,-1.6328 0.49219,-2.9258 1.4844,-3.875 0.98828,-0.94531 2.3359,-1.4219 4.0469,-1.4219 0.5625,0 1.1016,0.0625 1.625,0.1875 0.53125,0.125 1.0352,0.32031 1.5156,0.57812 v 2.1094 C 8.88281,-7.84769 8.39844,-8.09378 7.9219,-8.25004 7.45315,-8.40629 6.95706,-8.48442 6.4375,-8.48442 c -0.9375,0 -1.6797,0.30469 -2.2188,0.90625 -0.53125,0.60547 -0.79688,1.4336 -0.79688,2.4844 0,1.0547 0.26562,1.8828 0.79688,2.4844 0.53906,0.60547 1.2812,0.90625 2.2188,0.90625 0.51953,0 1.0156,-0.078125 1.4844,-0.23438 0.47656,-0.15625 0.96094,-0.39844 1.4531,-0.73438 z" />
    </g>
    <g
       id="use100"
       transform="translate(215.80469,602)">
      <path
         inkscape:connector-curvature="0"
         id="path538"
         d="M 1.1719,-7.6562 H 3.625 V 0 H 1.1719 Z m 0,-2.9844 H 3.625 v 2 H 1.1719 Z" />
    </g>
    <g
       id="use102"
       transform="translate(220.60156,602)">
      <path
         inkscape:connector-curvature="0"
         id="path542"
         d="m 4.8125,-6.0938 c -0.54297,0 -0.95312,0.19922 -1.2344,0.59375 -0.28125,0.38672 -0.42188,0.94531 -0.42188,1.6719 0,0.74219 0.14062,1.3086 0.42188,1.7031 0.28125,0.38672 0.69141,0.57812 1.2344,0.57812 0.53906,0 0.95312,-0.19141 1.2344,-0.57812 0.28125,-0.39453 0.42188,-0.96094 0.42188,-1.7031 0,-0.72656 -0.14062,-1.2852 -0.42188,-1.6719 C 5.76565,-5.89458 5.35159,-6.0938 4.8125,-6.0938 Z m 0,-1.75 c 1.3203,0 2.3516,0.35938 3.0938,1.0781 0.73828,0.71094 1.1094,1.6875 1.1094,2.9375 0,1.2617 -0.37109,2.25 -1.1094,2.9688 C 7.16411,-0.14846 6.1329,0.2031 4.8125,0.2031 3.5,0.2031 2.4687,-0.14846 1.7187,-0.8594 0.97651,-1.57815 0.6093,-2.5664 0.6093,-3.8282 c 0,-1.25 0.36719,-2.2266 1.1094,-2.9375 0.75,-0.71875 1.7812,-1.0781 3.0938,-1.0781 z" />
    </g>
    <g
       id="use104"
       transform="translate(230.22266,602)">
      <path
         inkscape:connector-curvature="0"
         id="path558"
         d="M 8.875,-4.6562 V 0 H 6.4062 v -3.5625 c 0,-0.66406 -0.015625,-1.125 -0.046875,-1.375 -0.023437,-0.25 -0.070313,-0.42969 -0.14062,-0.54688 -0.09375,-0.16406 -0.22656,-0.28906 -0.39062,-0.375 C 5.660115,-5.95313 5.472615,-6 5.265585,-6 c -0.51172,0 -0.91406,0.19922 -1.2031,0.59375 -0.29297,0.39844 -0.4375,0.94531 -0.4375,1.6406 V -5e-5 h -2.4531 v -7.6562 h 2.4531 v 1.125 c 0.36328,-0.44531 0.75391,-0.77344 1.1719,-0.98438 0.41406,-0.21875 0.875,-0.32812 1.375,-0.32812 0.88281,0 1.5547,0.27344 2.0156,0.8125 0.45703,0.54297 0.6875,1.3359 0.6875,2.375 z" />
    </g>
    <g
       id="use106"
       transform="translate(240.1875,602)">
      <path
         inkscape:connector-curvature="0"
         id="path566"
         d="m 7.1562,-7.4219 v 1.8594 C 6.63276,-5.78125 6.1289,-5.94141 5.6406,-6.04688 5.14841,-6.16016 4.69138,-6.21876 4.2656,-6.21876 c -0.46875,0 -0.82031,0.0625 -1.0469,0.1875 -0.21875,0.11719 -0.32812,0.29297 -0.32812,0.53125 0,0.19922 0.082031,0.35156 0.25,0.45312 0.16406,0.10547 0.47266,0.18359 0.92188,0.23438 l 0.42188,0.046875 c 1.2578,0.16797 2.1016,0.43359 2.5312,0.79688 0.4375,0.36719 0.65625,0.9375 0.65625,1.7188 0,0.8125 -0.30469,1.4297 -0.90625,1.8438 -0.60547,0.40625 -1.5,0.60938 -2.6875,0.60938 -0.51172,0 -1.0391,-0.042969 -1.5781,-0.125 -0.53125,-0.082031 -1.0859,-0.20312 -1.6562,-0.35938 v -1.8594 c 0.48828,0.24219 0.98828,0.42188 1.5,0.54688 0.50781,0.11719 1.0312,0.17188 1.5625,0.17188 0.47656,0 0.83594,-0.066406 1.0781,-0.20312 0.23828,-0.13281 0.35938,-0.33203 0.35938,-0.59375 0,-0.21875 -0.085938,-0.37891 -0.25,-0.48438 -0.16797,-0.10156 -0.49609,-0.1875 -0.98438,-0.25 l -0.4375,-0.0625 c -1.0938,-0.13281 -1.8594,-0.38281 -2.2969,-0.75 -0.4375,-0.375 -0.65625,-0.9375 -0.65625,-1.6875 0,-0.8125 0.27344,-1.4102 0.82812,-1.7969 0.5625,-0.39453 1.4141,-0.59375 2.5625,-0.59375 0.45703,0 0.92969,0.039062 1.4219,0.10938 0.5,0.0625 1.0391,0.16797 1.625,0.3125 z" />
    </g>
    <g
       id="use108"
       transform="translate(70,616)">
      <path
         inkscape:connector-curvature="0"
         id="path570"
         d="m 6.2188,-10.641 v 1.6094 H 4.8594 c -0.34375,0 -0.58594,0.0625 -0.71875,0.1875 -0.13672,0.125 -0.20312,0.34375 -0.20312,0.65625 v 0.53125 h 2.0781 v 1.75 H 3.93753 V -4e-4 h -2.4531 v -5.9062 h -1.2188 v -1.75 h 1.2188 v -0.53125 c 0,-0.83203 0.22656,-1.4453 0.6875,-1.8438 0.46875,-0.40625 1.1914,-0.60938 2.1719,-0.60938 z" />
    </g>
    <g
       id="use110"
       transform="translate(76.089844,616)">
      <path
         inkscape:connector-curvature="0"
         id="path514"
         d="M 6.8594,-5.5781 C 6.64846,-5.67185 6.43752,-5.73826 6.21878,-5.78122 6.00784,-5.832001 5.7969,-5.859345 5.57816,-5.859345 c -0.625,0 -1.1094,0.20312 -1.4531,0.60938 -0.33594,0.39844 -0.5,0.96875 -0.5,1.7188 v 3.5312 h -2.4531 v -7.6562 h 2.4531 v 1.25 c 0.3125,-0.5 0.67188,-0.86328 1.0781,-1.0938 0.40625,-0.22656 0.89453,-0.34375 1.4688,-0.34375 0.082031,0 0.17188,0.00781 0.26562,0.015625 0.09375,0 0.23438,0.015625 0.42188,0.046875 z" />
    </g>
    <g
       id="use112"
       transform="translate(82.996094,616)">
      <path
         inkscape:connector-curvature="0"
         id="path546"
         d="m 4.8125,-6.0938 c -0.54297,0 -0.95312,0.19922 -1.2344,0.59375 -0.28125,0.38672 -0.42188,0.94531 -0.42188,1.6719 0,0.74219 0.14062,1.3086 0.42188,1.7031 0.28125,0.38672 0.69141,0.57812 1.2344,0.57812 0.53906,0 0.95312,-0.19141 1.2344,-0.57812 0.28125,-0.39453 0.42188,-0.96094 0.42188,-1.7031 0,-0.72656 -0.14062,-1.2852 -0.42188,-1.6719 C 5.76565,-5.89458 5.35159,-6.0938 4.8125,-6.0938 Z m 0,-1.75 c 1.3203,0 2.3516,0.35938 3.0938,1.0781 0.73828,0.71094 1.1094,1.6875 1.1094,2.9375 0,1.2617 -0.37109,2.25 -1.1094,2.9688 C 7.16411,-0.14846 6.1329,0.2031 4.8125,0.2031 3.5,0.2031 2.4687,-0.14846 1.7187,-0.8594 0.97651,-1.57815 0.6093,-2.5664 0.6093,-3.8282 c 0,-1.25 0.36719,-2.2266 1.1094,-2.9375 0.75,-0.71875 1.7812,-1.0781 3.0938,-1.0781 z" />
    </g>
    <g
       id="use114"
       transform="translate(92.613281,616)">
      <path
         inkscape:connector-curvature="0"
         id="path574"
         d="m 8.2656,-6.3906 c 0.3125,-0.46875 0.67969,-0.82812 1.1094,-1.0781 0.42578,-0.25 0.89453,-0.375 1.4062,-0.375 0.875,0 1.5391,0.27344 2,0.8125 0.46875,0.54297 0.70312,1.3359 0.70312,2.375 V 0 h -2.4688 v -4 c 0.0078,-0.050781 0.01563,-0.10938 0.01563,-0.17188 v -0.28125 c 0,-0.53906 -0.07813,-0.92969 -0.23438,-1.1719 -0.15625,-0.25 -0.41797,-0.375 -0.78125,-0.375 -0.46094,0 -0.82031,0.19531 -1.0781,0.57812 -0.25,0.38672 -0.38281,0.9375 -0.39062,1.6562 v 3.7656 H 6.0937 v -4 c 0,-0.84375 -0.074219,-1.3828 -0.21875,-1.625 -0.14844,-0.25 -0.40625,-0.375 -0.78125,-0.375 -0.46875,0 -0.83594,0.19531 -1.0938,0.57812 -0.25,0.38672 -0.375,0.9375 -0.375,1.6562 v 3.7656 H 1.1561 v -7.6562 h 2.4688 v 1.125 c 0.30078,-0.4375 0.64453,-0.76562 1.0312,-0.98438 0.39453,-0.21875 0.82812,-0.32812 1.2969,-0.32812 0.51953,0 0.98438,0.13281 1.3906,0.39062 0.40625,0.25 0.71094,0.60547 0.92188,1.0625 z" />
    </g>
    <g
       id="use116"
       transform="translate(112.07422,616)">
      <path
         inkscape:connector-curvature="0"
         id="path470"
         d="m 3.8438,-9.8281 v 2.1719 H 6.375 v 1.75 H 3.8438 v 3.25 c 0,0.35547 0.066406,0.59375 0.20312,0.71875 0.14453,0.125 0.42969,0.1875 0.85938,0.1875 h 1.25 V 5e-5 H 4.0625 C 3.09375,5e-5 2.4063,-0.19526 2,-0.5937 1.60156,-0.99995 1.40625,-1.6875 1.40625,-2.6562 v -3.25 h -1.2188 v -1.75 h 1.2188 v -2.1719 z" />
    </g>
    <g
       id="use118"
       transform="translate(118.76953,616)">
      <path
         inkscape:connector-curvature="0"
         id="path578"
         d="M 8.875,-4.6562 V 0 H 6.4062 v -3.5625 c 0,-0.66406 -0.015625,-1.125 -0.046875,-1.375 -0.023437,-0.25 -0.070313,-0.42969 -0.14062,-0.54688 -0.09375,-0.16406 -0.22656,-0.28906 -0.39062,-0.375 C 5.660115,-5.95313 5.472615,-6 5.265585,-6 c -0.51172,0 -0.91406,0.19922 -1.2031,0.59375 -0.29297,0.39844 -0.4375,0.94531 -0.4375,1.6406 V -5e-5 h -2.4531 v -10.641 h 2.4531 v 4.1094 c 0.36328,-0.44531 0.75391,-0.77344 1.1719,-0.98438 0.41406,-0.21875 0.875,-0.32812 1.375,-0.32812 0.88281,0 1.5547,0.27344 2.0156,0.8125 0.45703,0.54297 0.6875,1.3359 0.6875,2.375 z" />
    </g>
    <g
       id="use120"
       transform="translate(128.73437,616)">
      <path
         inkscape:connector-curvature="0"
         id="path494"
         d="m 8.8125,-3.8438 v 0.6875 H 3.0937 c 0.0625,0.57422 0.26953,1.0078 0.625,1.2969 0.35156,0.29297 0.84766,0.4375 1.4844,0.4375 0.51953,0 1.0508,-0.078125 1.5938,-0.23438 0.53906,-0.15625 1.0938,-0.39062 1.6562,-0.70312 v 1.8906 c -0.57422,0.21875 -1.1523,0.38672 -1.7344,0.5 -0.57422,0.11328 -1.1523,0.17188 -1.7344,0.17188 -1.3867,0 -2.4648,-0.35156 -3.2344,-1.0625 -0.76172,-0.70703 -1.1406,-1.6953 -1.1406,-2.9688 0,-1.2383 0.375,-2.2188 1.125,-2.9375 0.75,-0.7187 1.7852,-1.0781 3.1094,-1.0781 1.207,0 2.1719,0.36719 2.8906,1.0938 0.71875,0.71875 1.0781,1.6875 1.0781,2.9062 z M 6.2969,-4.6563 c 0,-0.46875 -0.13672,-0.84375 -0.40625,-1.125 -0.27344,-0.28906 -0.625,-0.4375 -1.0625,-0.4375 -0.46875,0 -0.85547,0.13672 -1.1562,0.40625 -0.29297,0.26172 -0.47656,0.64844 -0.54688,1.1562 z" />
    </g>
    <g
       id="use122"
       transform="translate(143.10547,616)">
      <path
         inkscape:connector-curvature="0"
         id="path582"
         d="m 1.2812,-10.203 h 2.9375 l 3.7188,7 v -7 h 2.5 V 0 H 7.5 L 3.7812,-7 v 7 h -2.5 z" />
    </g>
    <g
       id="use124"
       transform="translate(154.82031,616)">
      <path
         inkscape:connector-curvature="0"
         id="path550"
         d="m 4.8125,-6.0938 c -0.54297,0 -0.95312,0.19922 -1.2344,0.59375 -0.28125,0.38672 -0.42188,0.94531 -0.42188,1.6719 0,0.74219 0.14062,1.3086 0.42188,1.7031 0.28125,0.38672 0.69141,0.57812 1.2344,0.57812 0.53906,0 0.95312,-0.19141 1.2344,-0.57812 0.28125,-0.39453 0.42188,-0.96094 0.42188,-1.7031 0,-0.72656 -0.14062,-1.2852 -0.42188,-1.6719 C 5.76565,-5.89458 5.35159,-6.0938 4.8125,-6.0938 Z m 0,-1.75 c 1.3203,0 2.3516,0.35938 3.0938,1.0781 0.73828,0.71094 1.1094,1.6875 1.1094,2.9375 0,1.2617 -0.37109,2.25 -1.1094,2.9688 C 7.16411,-0.14846 6.1329,0.2031 4.8125,0.2031 3.5,0.2031 2.4687,-0.14846 1.7187,-0.8594 0.97651,-1.57815 0.6093,-2.5664 0.6093,-3.8282 c 0,-1.25 0.36719,-2.2266 1.1094,-2.9375 0.75,-0.71875 1.7812,-1.0781 3.0938,-1.0781 z" />
    </g>
    <g
       id="use126"
       transform="translate(164.4375,616)">
      <path
         inkscape:connector-curvature="0"
         id="path586"
         d="m 1.0938,-2.9844 v -4.6719 h 2.4688 v 0.76562 c 0,0.41797 -0.00781,0.9375 -0.015625,1.5625 v 1.25 c 0,0.61719 0.015625,1.0586 0.046875,1.3281 0.03125,0.27344 0.082031,0.46875 0.15625,0.59375 0.10156,0.15625 0.23438,0.28125 0.39062,0.375 0.16406,0.085938 0.35156,0.125 0.5625,0.125 0.50781,0 0.91016,-0.19141 1.2031,-0.57812 0.28906,-0.39453 0.4375,-0.94141 0.4375,-1.6406 v -3.7812 h 2.4531 V -5e-5 h -2.4531 v -1.1094 c -0.36719,0.44922 -0.75781,0.78125 -1.1719,1 -0.41797,0.20703 -0.87109,0.3125 -1.3594,0.3125 -0.88672,0 -1.5625,-0.26953 -2.0312,-0.8125 -0.46094,-0.53906 -0.6875,-1.332 -0.6875,-2.375 z" />
    </g>
    <g
       id="use128"
       transform="translate(174.40625,616)">
      <path
         inkscape:connector-curvature="0"
         id="path562"
         d="M 8.875,-4.6562 V 0 H 6.4062 v -3.5625 c 0,-0.66406 -0.015625,-1.125 -0.046875,-1.375 -0.023437,-0.25 -0.070313,-0.42969 -0.14062,-0.54688 -0.09375,-0.16406 -0.22656,-0.28906 -0.39062,-0.375 C 5.660115,-5.95313 5.472615,-6 5.265585,-6 c -0.51172,0 -0.91406,0.19922 -1.2031,0.59375 -0.29297,0.39844 -0.4375,0.94531 -0.4375,1.6406 V -5e-5 h -2.4531 v -7.6562 h 2.4531 v 1.125 c 0.36328,-0.44531 0.75391,-0.77344 1.1719,-0.98438 0.41406,-0.21875 0.875,-0.32812 1.375,-0.32812 0.88281,0 1.5547,0.27344 2.0156,0.8125 0.45703,0.54297 0.6875,1.3359 0.6875,2.375 z" />
    </g>
    <g
       id="use130"
       transform="translate(189.24609,616)">
      <path
         inkscape:connector-curvature="0"
         id="path590"
         d="m 1.2812,-10.203 h 4.375 c 1.3008,0 2.2969,0.28906 2.9844,0.85938 0.69531,0.57422 1.0469,1.3984 1.0469,2.4688 0,1.0742 -0.35156,1.8984 -1.0469,2.4688 C 7.9531,-3.8318 6.957,-3.54664 5.6562,-3.54664 H 3.9218 V 2.6e-4 H 1.2812 Z m 2.6406,1.9062 v 2.8438 h 1.4531 c 0.50781,0 0.89844,-0.11719 1.1719,-0.35938 0.28125,-0.25 0.42188,-0.60156 0.42188,-1.0625 0,-0.45703 -0.14062,-0.80469 -0.42188,-1.0469 -0.27344,-0.25 -0.66406,-0.375 -1.1719,-0.375 z" />
    </g>
    <g
       id="use132"
       transform="translate(199.50781,616)">
      <path
         inkscape:connector-curvature="0"
         id="path518"
         d="M 6.8594,-5.5781 C 6.64846,-5.67185 6.43752,-5.73826 6.21878,-5.78122 6.00784,-5.832001 5.7969,-5.859345 5.57816,-5.859345 c -0.625,0 -1.1094,0.20312 -1.4531,0.60938 -0.33594,0.39844 -0.5,0.96875 -0.5,1.7188 v 3.5312 h -2.4531 v -7.6562 h 2.4531 v 1.25 c 0.3125,-0.5 0.67188,-0.86328 1.0781,-1.0938 0.40625,-0.22656 0.89453,-0.34375 1.4688,-0.34375 0.082031,0 0.17188,0.00781 0.26562,0.015625 0.09375,0 0.23438,0.015625 0.42188,0.046875 z" />
    </g>
    <g
       id="use134"
       transform="translate(206.41016,616)">
      <path
         inkscape:connector-curvature="0"
         id="path554"
         d="m 4.8125,-6.0938 c -0.54297,0 -0.95312,0.19922 -1.2344,0.59375 -0.28125,0.38672 -0.42188,0.94531 -0.42188,1.6719 0,0.74219 0.14062,1.3086 0.42188,1.7031 0.28125,0.38672 0.69141,0.57812 1.2344,0.57812 0.53906,0 0.95312,-0.19141 1.2344,-0.57812 0.28125,-0.39453 0.42188,-0.96094 0.42188,-1.7031 0,-0.72656 -0.14062,-1.2852 -0.42188,-1.6719 C 5.76565,-5.89458 5.35159,-6.0938 4.8125,-6.0938 Z m 0,-1.75 c 1.3203,0 2.3516,0.35938 3.0938,1.0781 0.73828,0.71094 1.1094,1.6875 1.1094,2.9375 0,1.2617 -0.37109,2.25 -1.1094,2.9688 C 7.16411,-0.14846 6.1329,0.2031 4.8125,0.2031 3.5,0.2031 2.4687,-0.14846 1.7187,-0.8594 0.97651,-1.57815 0.6093,-2.5664 0.6093,-3.8282 c 0,-1.25 0.36719,-2.2266 1.1094,-2.9375 0.75,-0.71875 1.7812,-1.0781 3.0938,-1.0781 z" />
    </g>
    <g
       id="use136"
       transform="translate(216.03125,616)">
      <path
         inkscape:connector-curvature="0"
         id="path594"
         d="M 1.1719,-7.6562 H 3.625 v 7.5156 c 0,1.0312 -0.25,1.8125 -0.75,2.3438 C 2.38281,2.74226 1.6758,3.0157 0.75,3.0157 H -0.4688 V 1.4219 h 0.42188 c 0.46875,0 0.78516,-0.10938 0.95312,-0.32812 0.17578,-0.21094 0.26562,-0.62109 0.26562,-1.2344 z m 0,-2.9844 H 3.625 v 2 H 1.1719 Z" />
    </g>
    <g
       id="use138"
       transform="translate(220.82812,616)">
      <path
         inkscape:connector-curvature="0"
         id="path498"
         d="m 8.8125,-3.8438 v 0.6875 H 3.0937 c 0.0625,0.57422 0.26953,1.0078 0.625,1.2969 0.35156,0.29297 0.84766,0.4375 1.4844,0.4375 0.51953,0 1.0508,-0.078125 1.5938,-0.23438 0.53906,-0.15625 1.0938,-0.39062 1.6562,-0.70312 v 1.8906 c -0.57422,0.21875 -1.1523,0.38672 -1.7344,0.5 -0.57422,0.11328 -1.1523,0.17188 -1.7344,0.17188 -1.3867,0 -2.4648,-0.35156 -3.2344,-1.0625 -0.76172,-0.70703 -1.1406,-1.6953 -1.1406,-2.9688 0,-1.2383 0.375,-2.2188 1.125,-2.9375 0.75,-0.7187 1.7852,-1.0781 3.1094,-1.0781 1.207,0 2.1719,0.36719 2.8906,1.0938 0.71875,0.71875 1.0781,1.6875 1.0781,2.9062 z M 6.2969,-4.6563 c 0,-0.46875 -0.13672,-0.84375 -0.40625,-1.125 -0.27344,-0.28906 -0.625,-0.4375 -1.0625,-0.4375 -0.46875,0 -0.85547,0.13672 -1.1562,0.40625 -0.29297,0.26172 -0.47656,0.64844 -0.54688,1.1562 z" />
    </g>
    <g
       id="use140"
       transform="translate(230.32422,616)">
      <path
         inkscape:connector-curvature="0"
         id="path598"
         d="m 7.3594,-7.4219 v 2 c -0.33594,-0.22656 -0.66797,-0.39453 -1,-0.5 -0.33594,-0.11328 -0.68359,-0.17188 -1.0469,-0.17188 -0.67969,0 -1.2109,0.20312 -1.5938,0.60938 -0.375,0.39844 -0.5625,0.94922 -0.5625,1.6562 0,0.71875 0.1875,1.2812 0.5625,1.6875 0.38281,0.39844 0.91406,0.59375 1.5938,0.59375 0.38281,0 0.75,-0.054687 1.0938,-0.17188 0.34375,-0.11328 0.66016,-0.28516 0.95312,-0.51562 v 2.0156 C 6.9727,-0.08213 6.58208,0.01943 6.18752,0.09365 5.8008,0.163962 5.41018,0.20303 5.01562,0.20303 c -1.3867,0 -2.4688,-0.35156 -3.25,-1.0625 -0.77344,-0.70703 -1.1562,-1.6953 -1.1562,-2.9688 0,-1.2578 0.38281,-2.2422 1.1562,-2.9531 0.78125,-0.70703 1.8633,-1.0625 3.25,-1.0625 0.39453,0 0.78516,0.039062 1.1719,0.10938 0.39453,0.074219 0.78516,0.17969 1.1719,0.3125 z" />
    </g>
    <g
       id="use142"
       transform="translate(238.62109,616)">
      <path
         inkscape:connector-curvature="0"
         id="path474"
         d="m 3.8438,-9.8281 v 2.1719 H 6.375 v 1.75 H 3.8438 v 3.25 c 0,0.35547 0.066406,0.59375 0.20312,0.71875 0.14453,0.125 0.42969,0.1875 0.85938,0.1875 h 1.25 V 5e-5 H 4.0625 C 3.09375,5e-5 2.4063,-0.19526 2,-0.5937 1.60156,-0.99995 1.40625,-1.6875 1.40625,-2.6562 v -3.25 h -1.2188 v -1.75 h 1.2188 v -2.1719 z" />
    </g>
  </g>
  <path
     style="fill:#ffffff;fill-opacity:1;stroke:#ffffff;stroke-width:0.7088998;stroke-miterlimit:4;stroke-dasharray:none;stroke-opacity:1"
     d="m 37.46599,45.415951 c -3.545049,-0.695525 -6.027302,-3.446477 -6.212726,-6.885241 -0.264201,-4.899709 4.523691,-8.728092 9.366582,-7.489489 1.420935,0.363414 2.508797,0.987051 3.548682,2.034348 1.036649,1.044037 1.579597,1.980883 1.920494,3.313777 1.03572,4.049626 -1.576269,8.097676 -5.786073,8.967235 -0.989318,0.204349 -1.99115,0.225315 -2.836959,0.05937 z"
     id="path82"
     inkscape:connector-curvature="0" />
  <path
     style="fill:#ffffff;fill-opacity:1;stroke:#ffffff;stroke-width:0.7088998;stroke-miterlimit:4;stroke-dasharray:none;stroke-opacity:1"
     d="m 26.19121,68.905525 c -0.230709,-0.135503 -0.522556,-0.385376 -0.64855,-0.555276 -0.303641,-0.409453 -0.389717,-1.346813 -0.165034,-1.7972 0.233969,-0.469003 8.653127,-11.512915 9.088841,-11.922376 0.473619,-0.445081 1.175488,-0.621332 1.802231,-0.452567 0.39617,0.106677 0.913776,0.543072 2.71241,2.286843 1.222544,1.185255 2.386844,2.239834 2.587329,2.34351 0.463507,0.239688 1.376439,0.24248 1.83022,0.0056 0.192706,-0.100596 0.491536,-0.336029 0.664069,-0.523185 0.172533,-0.187155 3.480159,-4.439105 7.350282,-9.448776 3.870122,-5.009672 7.24212,-9.30719 7.493329,-9.550039 0.762091,-0.736732 1.843823,-0.762099 2.582833,-0.06057 0.256087,0.2431 3.183271,5.290777 8.040547,13.865232 8.421099,14.865604 8.08236,14.180227 7.458015,15.089905 -0.154184,0.224647 -0.432598,0.521273 -0.618698,0.659167 L 76.03067,69.096509 51.320675,69.1242 26.61068,69.151891 Z"
     id="path84"
     inkscape:connector-curvature="0" />
</svg>
