<?xml version="1.0" encoding="UTF-8" standalone="no"?>
<!-- Created with Inkscape (http://www.inkscape.org/) -->

<svg
   xmlns:dc="http://purl.org/dc/elements/1.1/"
   xmlns:cc="http://creativecommons.org/ns#"
   xmlns:rdf="http://www.w3.org/1999/02/22-rdf-syntax-ns#"
   xmlns:svg="http://www.w3.org/2000/svg"
   xmlns="http://www.w3.org/2000/svg"
   xmlns:sodipodi="http://sodipodi.sourceforge.net/DTD/sodipodi-0.dtd"
   xmlns:inkscape="http://www.inkscape.org/namespaces/inkscape"
   width="296"
   height="200"
   viewBox="0 0 210 297"
   version="1.1"
   id="svg83"
   inkscape:version="0.92.5 (2060ec1f9f, 2020-04-08)"
   sodipodi:docname="units.svg">
  <defs
     id="defs77">
    <marker
       inkscape:stockid="Arrow1Lstart"
       orient="auto"
       refY="0.0"
       refX="0.0"
       id="Arrow1Lstart"
       style="overflow:visible"
       inkscape:isstock="true">
      <path
         id="path8536"
         d="M 0.0,0.0 L 5.0,-5.0 L -12.5,0.0 L 5.0,5.0 L 0.0,0.0 z "
         style="fill-rule:evenodd;stroke:#ffffff;stroke-width:1pt;stroke-opacity:1;fill:#ffffff;fill-opacity:1"
         transform="scale(0.8) translate(12.5,0)" />
    </marker>
  </defs>
  <sodipodi:namedview
     id="base"
     pagecolor="#ffffff"
     bordercolor="#666666"
     borderopacity="1.0"
     inkscape:pageopacity="0.0"
     inkscape:pageshadow="2"
     inkscape:zoom="1.4"
     inkscape:cx="178.84593"
     inkscape:cy="-11.769048"
     inkscape:document-units="mm"
     inkscape:current-layer="g14991"
     showgrid="false"
     showguides="true"
     inkscape:window-width="1920"
     inkscape:window-height="1031"
     inkscape:window-x="0"
     inkscape:window-y="25"
     inkscape:window-maximized="1">
    <inkscape:grid
       type="xygrid"
       id="grid3788" />
  </sodipodi:namedview>
  <metadata
     id="metadata80">
    <rdf:RDF>
      <cc:Work
         rdf:about="">
        <dc:format>image/svg+xml</dc:format>
        <dc:type
           rdf:resource="http://purl.org/dc/dcmitype/StillImage" />
        <dc:title />
      </cc:Work>
    </rdf:RDF>
  </metadata>
  <g
     inkscape:label="Layer 1"
     inkscape:groupmode="layer"
     id="layer1" />
  <g
     style="image-rendering:optimizeQuality;shape-rendering:geometricPrecision;text-rendering:geometricPrecision"
     id="g1053"
     transform="matrix(59.312051,0,0,59.756563,-36.666158,4.6227087)">
    <path
       inkscape:connector-curvature="0"
       class="fil0"
       d="M 4.805,1.5539 H 3.8433 V 1.1635 h 0.4675 c 0.063,0 0.1145,-0.0515 0.1145,-0.1145 V 0.1146 C 4.4253,0.0516 4.3738,0 4.3108,0 H 2.6673 C 2.6043,0 2.5528,0.0516 2.5528,0.1146 V 1.049 c 0,0.063 0.0515,0.1145 0.1145,0.1145 H 3.1348 V 1.5539 H 2.1731 c -0.0538,0 -0.0978,0.044 -0.0978,0.0978 V 1.8939 H 4.9028 V 1.6517 c 0,-0.0538 -0.044,-0.0978 -0.0978,-0.0978 z m -2.7297,0.433 v 2.7807 c 0,0.0538 0.044,0.0978 0.0978,0.0978 H 4.805 c 0.0538,0 0.0978,-0.044 0.0978,-0.0978 V 1.9869 Z"
       id="path1049"
       style="fill:#000000" />
    <path
       inkscape:connector-curvature="0"
       class="fil0"
       d="M 1.7069,2.7703 H 1.1055 V 2.5262 h 0.2923 c 0.0394,0 0.0716,-0.0322 0.0716,-0.0717 V 1.8703 C 1.4694,1.8309 1.4372,1.7987 1.3978,1.7987 H 0.3702 c -0.0394,0 -0.0716,0.0322 -0.0716,0.0716 v 0.5842 c 0,0.0395 0.0322,0.0717 0.0716,0.0717 H 0.6625 V 2.7703 H 0.0611 C 0.0275,2.7703 0,2.7978 0,2.8314 V 2.9829 H 1.768 V 2.8314 C 1.768,2.7978 1.7405,2.7703 1.7069,2.7703 Z M 0,3.041 v 1.7387 c 0,0.0337 0.0275,0.0612 0.0611,0.0612 h 1.6458 c 0.0336,0 0.0611,-0.0275 0.0611,-0.0612 V 3.041 Z"
       id="path1051"
       style="fill:#000000" />
  </g>
  <text
     style="font-weight:bold;font-size:7.42500019px;font-family:'Helvetica Neue', Helvetica, Arial-Unicode, Arial, Sans-serif;fill:#000000;stroke-width:1.48500001;image-rendering:optimizeQuality;shape-rendering:geometricPrecision;text-rendering:geometricPrecision"
     x="-31.434383"
     y="334.98117"
     font-size="5px"
     font-weight="bold"
     id="text1055">Created by sarah</text>
  <text
     style="font-weight:bold;font-size:7.42500019px;font-family:'Helvetica Neue', Helvetica, Arial-Unicode, Arial, Sans-serif;fill:#000000;stroke-width:1.48500001;image-rendering:optimizeQuality;shape-rendering:geometricPrecision;text-rendering:geometricPrecision"
     x="-31.434383"
     y="342.40616"
     font-size="5px"
     font-weight="bold"
     id="text1057">from the Noun Project</text>
  <g
     id="g14991"
     transform="matrix(1.485,0,0,1.1270894,95.232783,140.2886)"
     style="fill:#ffffff">
    <path
       id="path14974"
       d="M 60.64,9 A 3.72,3.72 0 0 0 57.89,7.93 3.68,3.68 0 0 0 55.19,9 3.71,3.71 0 0 0 54.06,11.69 v 23 H 0 v 30.62 h 54.06 v 23 a 3.86,3.86 0 0 0 3.82,3.82 4.49,4.49 0 0 0 2.88,-1.19 L 98.92,52.63 A 3.55,3.55 0 0 0 100,50 3.71,3.71 0 0 0 98.92,47.25 Z"
       inkscape:connector-curvature="0"
       style="fill:#ffffff" />
    <text
       id="text14976"
       font-weight="bold"
       font-size="5px"
       y="162.43187"
       x="0"
       style="font-weight:bold;font-size:5px;font-family:'Helvetica Neue', Helvetica, Arial-Unicode, Arial, Sans-serif;fill:#666666;">Created by Rainbow Designs</text>
    <text
       id="text14978"
       font-weight="bold"
       font-size="5px"
       y="167.43185"
       x="0"
       style="font-weight:bold;font-size:5px;font-family:'Helvetica Neue', Helvetica, Arial-Unicode, Arial, Sans-serif;fill:#666666;">from the Noun Project</text>
  </g>
</svg>
