<?xml version="1.0" encoding="UTF-8" standalone="no"?>
<!-- Created with Inkscape (http://www.inkscape.org/) -->

<svg
   xmlns:dc="http://purl.org/dc/elements/1.1/"
   xmlns:cc="http://creativecommons.org/ns#"
   xmlns:rdf="http://www.w3.org/1999/02/22-rdf-syntax-ns#"
   xmlns:svg="http://www.w3.org/2000/svg"
   xmlns="http://www.w3.org/2000/svg"
   xmlns:sodipodi="http://sodipodi.sourceforge.net/DTD/sodipodi-0.dtd"
   xmlns:inkscape="http://www.inkscape.org/namespaces/inkscape"
   width="296"
   height="200"
   viewBox="0 0 210 297"
   version="1.1"
   id="svg83"
   inkscape:version="0.92.5 (2060ec1f9f, 2020-04-08)"
   sodipodi:docname="unprocess_button.svg">
  <defs
     id="defs77" />
  <sodipodi:namedview
     id="base"
     pagecolor="#ffffff"
     bordercolor="#666666"
     borderopacity="1.0"
     inkscape:pageopacity="0.0"
     inkscape:pageshadow="2"
     inkscape:zoom="1.4"
     inkscape:cx="132.95819"
     inkscape:cy="143.88427"
     inkscape:document-units="mm"
     inkscape:current-layer="svg83"
     showgrid="false"
     showguides="true"
     inkscape:window-width="1920"
     inkscape:window-height="1031"
     inkscape:window-x="0"
     inkscape:window-y="25"
     inkscape:window-maximized="1">
    <inkscape:grid
       type="xygrid"
       id="grid3788" />
  </sodipodi:namedview>
  <metadata
     id="metadata80">
    <rdf:RDF>
      <cc:Work
         rdf:about="">
        <dc:format>image/svg+xml</dc:format>
        <dc:type
           rdf:resource="http://purl.org/dc/dcmitype/StillImage" />
        <dc:title />
      </cc:Work>
    </rdf:RDF>
  </metadata>
  <g
     inkscape:label="Layer 1"
     inkscape:groupmode="layer"
     id="layer1" />
  <g
     id="g1152"
     transform="matrix(4.6694893,0,0,3.3704703,-126.19238,-15.747628)">
    <path
       id="path1132"
       d="M 95,45 C 95,25.7 74.8,10 50,10 40.9,10 32.4,12.1 25.3,15.8 L 14.8,5.2 l -7.1,7.1 80,80 v 0 L 94.8,85.2 80.4,70.8 C 89.4,64.4 95,55.2 95,45 Z M 73.2,63.7 32.8,23.2 c 5.1,-2 11,-3.2 17.2,-3.2 19.3,0 35,11.2 35,25 0,7.4 -4.6,14.1 -11.8,18.7 z"
       inkscape:connector-curvature="0" />
    <path
       id="path1134"
       d="M 50,70 C 30.7,70 15,58.8 15,45 15,39.7 17.3,34.8 21.2,30.8 l -7,-7 C 8.4,29.7 5,37 5,45 5,55.3 10.8,64.6 20,71.1 V 90 L 35.7,78.2 C 40.2,79.4 45,80 50,80 56.3,80 62.2,79 67.6,77.2 L 59.5,69.1 C 56.5,69.7 53.3,70 50,70 Z"
       inkscape:connector-curvature="0" />
    <text
       id="text1136"
       font-weight="bold"
       font-size="5px"
       y="115"
       x="0"
       style="font-weight:bold;font-size:5px;font-family:'Helvetica Neue', Helvetica, Arial-Unicode, Arial, Sans-serif;fill:#000000">Created by Arthur Shlain</text>
    <text
       id="text1138"
       font-weight="bold"
       font-size="5px"
       y="120"
       x="0"
       style="font-weight:bold;font-size:5px;font-family:'Helvetica Neue', Helvetica, Arial-Unicode, Arial, Sans-serif;fill:#000000">from the Noun Project</text>
  </g>
</svg>
