<?xml version="1.0" encoding="UTF-8" standalone="no"?>
<!-- Created with Inkscape (http://www.inkscape.org/) -->

<svg
   xmlns:dc="http://purl.org/dc/elements/1.1/"
   xmlns:cc="http://creativecommons.org/ns#"
   xmlns:rdf="http://www.w3.org/1999/02/22-rdf-syntax-ns#"
   xmlns:svg="http://www.w3.org/2000/svg"
   xmlns="http://www.w3.org/2000/svg"
   xmlns:sodipodi="http://sodipodi.sourceforge.net/DTD/sodipodi-0.dtd"
   xmlns:inkscape="http://www.inkscape.org/namespaces/inkscape"
   width="296"
   height="200"
   viewBox="0 0 210 297"
   version="1.1"
   id="svg83"
   inkscape:version="0.92.5 (2060ec1f9f, 2020-04-08)"
   sodipodi:docname="actions.svg">
  <defs
     id="defs77" />
  <sodipodi:namedview
     id="base"
     pagecolor="#ffffff"
     bordercolor="#666666"
     borderopacity="1.0"
     inkscape:pageopacity="0.0"
     inkscape:pageshadow="2"
     inkscape:zoom="11.2"
     inkscape:cx="193.0343"
     inkscape:cy="9.0318497"
     inkscape:document-units="mm"
     inkscape:current-layer="g629"
     showgrid="false"
     showguides="true"
     inkscape:window-width="1920"
     inkscape:window-height="1031"
     inkscape:window-x="0"
     inkscape:window-y="25"
     inkscape:window-maximized="1">
    <inkscape:grid
       type="xygrid"
       id="grid3788" />
  </sodipodi:namedview>
  <metadata
     id="metadata80">
    <rdf:RDF>
      <cc:Work
         rdf:about="">
        <dc:format>image/svg+xml</dc:format>
        <dc:type
           rdf:resource="http://purl.org/dc/dcmitype/StillImage" />
        <dc:title></dc:title>
      </cc:Work>
    </rdf:RDF>
  </metadata>
  <g
     inkscape:label="Layer 1"
     inkscape:groupmode="layer"
     id="layer1" />
  <g
     transform="matrix(3.0956344,0,0,3.0221075,-51.780463,-2.04342)"
     id="g300">
    <path
       d="M 61.6,44.3 H 53.3 L 46.6,36.9 C 44.7,34.7 41.9,33.5 39,33.5 h -7.6 c -3.4,0 -6.6,1.7 -8.5,4.5 l -11,16 c -1,1.5 -1.2,3.4 -0.2,4.9 0.9,1.3 2.2,1.9 3.6,1.9 1.3,0 2.7,-0.6 3.5,-1.8 l 5.7,-8.3 v 42.4 c 0,2.1 1.5,4.1 3.5,4.4 2.7,0.4 4.9,-1.6 4.9,-4.2 V 67 H 37 v 26 c 0,2.1 1.5,4.1 3.5,4.4 2.7,0.4 4.9,-1.6 4.9,-4.2 V 48.1 l 2.9,3.2 c 0.8,0.9 2,1.4 3.2,1.4 h 10.1 c 2.3,0 4.2,-1.9 4.2,-4.2 0.1,-2.4 -1.8,-4.2 -4.2,-4.2 z"
       id="path292"
       inkscape:connector-curvature="0" />
    <circle
       cx="34.900002"
       cy="21.700001"
       r="9.3999996"
       id="circle294" />
    <path
       d="m 87.5,18.1 -4.8,-0.5 c -0.2,0 -0.3,-0.1 -0.4,-0.3 -0.2,-0.5 -0.4,-1.1 -0.7,-1.6 -0.1,-0.2 -0.1,-0.3 0.1,-0.5 l 3,-3.7 c 0.5,-0.6 0.4,-1.5 -0.1,-2 L 81.7,6.6 C 81.2,6.1 80.3,6 79.7,6.5 L 76,9.5 C 75.9,9.6 75.7,9.6 75.5,9.6 75,9.4 74.5,9.1 73.9,8.9 73.7,8.8 73.6,8.7 73.6,8.5 L 73.1,3.7 C 73,2.9 72.4,2.4 71.6,2.4 H 67.5 C 66.7,2.4 66.1,3 66,3.7 l -0.5,4.8 c 0,0.2 -0.1,0.3 -0.3,0.4 -0.5,0.2 -1.1,0.4 -1.6,0.7 -0.2,0.1 -0.3,0.1 -0.5,-0.1 l -3.7,-3 C 58.8,6 57.9,6.1 57.4,6.6 l -2.9,2.9 c -0.5,0.5 -0.6,1.4 -0.1,2 l 3,3.7 c 0.1,0.1 0.1,0.3 0.1,0.5 -0.3,0.5 -0.5,1 -0.7,1.6 -0.1,0.2 -0.2,0.3 -0.4,0.3 l -4.8,0.5 c -0.8,0.1 -1.3,0.7 -1.3,1.5 v 4.1 c 0,0.8 0.6,1.4 1.3,1.5 l 4.8,0.5 c 0.2,0 0.3,0.1 0.4,0.3 0.2,0.5 0.4,1.1 0.7,1.6 0.1,0.2 0.1,0.3 -0.1,0.5 l -3,3.7 c -0.5,0.6 -0.4,1.5 0.1,2 l 2.9,2.9 c 0.5,0.5 1.4,0.6 2,0.1 l 3.7,-3 c 0.1,-0.1 0.3,-0.1 0.5,-0.1 0.5,0.2 1,0.5 1.6,0.7 0.2,0.1 0.3,0.2 0.3,0.4 l 0.5,4.8 c 0.1,0.8 0.7,1.3 1.5,1.3 h 4.1 c 0.8,0 1.4,-0.6 1.5,-1.3 l 0.5,-4.8 c 0,-0.2 0.1,-0.3 0.3,-0.4 0.5,-0.2 1.1,-0.4 1.6,-0.7 0.2,-0.1 0.3,-0.1 0.5,0.1 l 3.7,3 c 0.6,0.5 1.5,0.4 2,-0.1 l 2.9,-2.9 c 0.5,-0.5 0.6,-1.4 0.1,-2 l -3,-3.7 c -0.1,-0.1 -0.1,-0.3 -0.1,-0.5 0.2,-0.5 0.5,-1 0.7,-1.6 0.1,-0.2 0.2,-0.3 0.4,-0.3 l 4.8,-0.5 c 0.8,-0.1 1.3,-0.7 1.3,-1.5 v -4.1 c 0.1,-0.8 -0.5,-1.4 -1.3,-1.5 z M 69.7,29.8 c -4.5,0 -8.2,-3.7 -8.2,-8.2 0,-4.5 3.7,-8.2 8.2,-8.2 4.5,0 8.2,3.7 8.2,8.2 0,4.6 -3.6,8.2 -8.2,8.2 z"
       id="path296"
       inkscape:connector-curvature="0" />
    <path
       d="m 71.8,18.5 -3,3.6 -1.1,-1.3 c -0.5,-0.6 -1.5,-0.7 -2.1,-0.2 -0.6,0.5 -0.7,1.5 -0.2,2.1 l 2.3,2.7 c 0.3,0.3 0.7,0.5 1.1,0.5 0.4,0 0.9,-0.2 1.1,-0.5 L 74,20.5 c 0.5,-0.6 0.4,-1.6 -0.2,-2.1 -0.6,-0.6 -1.5,-0.5 -2,0.1 z"
       id="path298"
       inkscape:connector-curvature="0" />
  </g>
  <text
     x="-67.453743"
     y="328.18942"
     font-size="5px"
     font-weight="bold"
     id="text306"
     style="font-weight:bold;font-size:7.42500019px;font-family:'Helvetica Neue', Helvetica, Arial-Unicode, Arial, Sans-serif;fill:#000000;stroke-width:1.48500001">Created by Adrien Coquet</text>
  <text
     x="-66.686195"
     y="337.89908"
     font-size="5px"
     font-weight="bold"
     id="text308"
     style="font-weight:bold;font-size:7.42500019px;font-family:'Helvetica Neue', Helvetica, Arial-Unicode, Arial, Sans-serif;fill:#000000;stroke-width:1.48500001">from the Noun Project</text>
  <g
     id="g629"
     transform="matrix(1.1399903,0,0,1.0939495,105.73332,157.05216)">
    <path
       id="path612"
       d="M 60.64,9 A 3.72,3.72 0 0 0 57.89,7.93 3.68,3.68 0 0 0 55.19,9 3.71,3.71 0 0 0 54.06,11.69 v 23 H 0 v 30.62 h 54.06 v 23 a 3.86,3.86 0 0 0 3.82,3.82 4.49,4.49 0 0 0 2.88,-1.19 L 98.92,52.63 A 3.55,3.55 0 0 0 100,50 3.71,3.71 0 0 0 98.92,47.25 Z"
       inkscape:connector-curvature="0" />
    <text
       id="text614"
       font-weight="bold"
       font-size="5px"
       y="158.43896"
       x="0"
       style="font-weight:bold;font-size:5px;font-family:'Helvetica Neue', Helvetica, Arial-Unicode, Arial, Sans-serif;fill:#000000">Created by Rainbow Designs</text>
    <text
       id="text616"
       font-weight="bold"
       font-size="5px"
       y="163.43896"
       x="0"
       style="font-weight:bold;font-size:5px;font-family:'Helvetica Neue', Helvetica, Arial-Unicode, Arial, Sans-serif;fill:#000000">from the Noun Project</text>
  </g>
</svg>
