<?xml version="1.0" encoding="UTF-8" standalone="no"?>
<svg
   xmlns:dc="http://purl.org/dc/elements/1.1/"
   xmlns:cc="http://creativecommons.org/ns#"
   xmlns:rdf="http://www.w3.org/1999/02/22-rdf-syntax-ns#"
   xmlns:svg="http://www.w3.org/2000/svg"
   xmlns="http://www.w3.org/2000/svg"
   xmlns:sodipodi="http://sodipodi.sourceforge.net/DTD/sodipodi-0.dtd"
   xmlns:inkscape="http://www.inkscape.org/namespaces/inkscape"
   viewBox="0 0 100 100"
   x="0px"
   y="0px"
   version="1.1"
   id="svg428"
   sodipodi:docname="answer_questiontilt.svg"
   width="100"
   height="100"
   inkscape:version="0.92.5 (2060ec1f9f, 2020-04-08)">
  <metadata
     id="metadata434">
    <rdf:RDF>
      <cc:Work
         rdf:about="">
        <dc:format>image/svg+xml</dc:format>
        <dc:type
           rdf:resource="http://purl.org/dc/dcmitype/StillImage" />
        <dc:title></dc:title>
      </cc:Work>
    </rdf:RDF>
  </metadata>
  <defs
     id="defs432" />
  <sodipodi:namedview
     pagecolor="#ffffff"
     bordercolor="#666666"
     borderopacity="1"
     objecttolerance="10"
     gridtolerance="10"
     guidetolerance="10"
     inkscape:pageopacity="0"
     inkscape:pageshadow="2"
     inkscape:window-width="1918"
     inkscape:window-height="1030"
     id="namedview430"
     showgrid="false"
     inkscape:zoom="2.95"
     inkscape:cx="32"
     inkscape:cy="40"
     inkscape:window-x="0"
     inkscape:window-y="25"
     inkscape:window-maximized="0"
     inkscape:current-layer="svg428" />
  <g
     id="g422"
     transform="matrix(1.6080754,0,0,1.6509204,-2.4477482,-2.9967556)">
    <g
       data-name="Glyph"
       id="g420">
      <path
         d="m 32,2 a 30,30 0 1 0 15.957,55.406 l 12.707,4.535 a 1,1 0 0 0 1.278,-1.277 L 57.407,47.956 A 30,30 0 0 0 32,2 Z M 8.85,35 A 2.993,2.993 0 0 1 8.208,29.082 24.111,24.111 0 0 1 32,8 23.8,23.8 0 0 1 48.968,15.034 1,1 0 0 1 47.552,16.446 21.817,21.817 0 0 0 32,10 22.1,22.1 0 0 0 10.19,29.333 2.973,2.973 0 0 1 11.85,32 a 3,3 0 0 1 -3,3 z M 32,41 a 2,2 0 0 1 -2,-2 v -7.2 a 2,2 0 0 1 2,-2 5,5 0 1 0 -5,-5 2,2 0 1 1 -4,0 9,9 0 1 1 11,8.776 V 39 a 2,2 0 0 1 -2,2 z m 2,6 a 2,2 0 1 1 -2,-2 2,2 0 0 1 2,2 z M 55.807,34.828 A 24.128,24.128 0 0 1 32,56 23.8,23.8 0 0 1 15.032,48.966 1,1 0 1 1 16.448,47.554 21.817,21.817 0 0 0 32,54 22.114,22.114 0 0 0 53.794,34.8 a 3.007,3.007 0 1 1 2.013,0.03 z"
         id="path414"
         inkscape:connector-curvature="0" />
      <path
         d="m 54.85,31.01 a 1,1 0 1 0 0,1.99 v 0.019 h 0.031 V 33 a 1,1 0 0 0 -0.032,-1.99 z"
         id="path416"
         inkscape:connector-curvature="0" />
      <path
         d="M 8.98,31.024 A 0.816,0.816 0 0 1 8.842,31 1.011,1.011 0 0 0 7.85,32 a 1,1 0 0 0 2,0 0.979,0.979 0 0 0 -0.87,-0.976 z"
         id="path418"
         inkscape:connector-curvature="0" />
    </g>
  </g>
  <text
     x="-0.028268944"
     y="128.50993"
     font-size="5px"
     font-weight="bold"
     id="text424"
     style="font-weight:bold;font-size:6.87328196px;font-family:'Helvetica Neue', Helvetica, Arial-Unicode, Arial, Sans-serif;fill:#000000;stroke-width:1.37465644"
     transform="scale(1.0300631,0.97081435)">Created by Flowicon</text>
  <text
     x="-0.028268944"
     y="135.38321"
     font-size="5px"
     font-weight="bold"
     id="text426"
     style="font-weight:bold;font-size:6.87328196px;font-family:'Helvetica Neue', Helvetica, Arial-Unicode, Arial, Sans-serif;fill:#000000;stroke-width:1.37465644"
     transform="scale(1.0300631,0.97081435)">from the Noun Project</text>
  <path
     style="fill:#ffffff;fill-opacity:1;stroke:#ffffff;stroke-width:2.0050714;stroke-miterlimit:4;stroke-dasharray:none;stroke-opacity:1"
     d="m 47.695715,64.199393 c -1.555821,-0.626552 -1.79741,-1.83044 -1.79741,-8.956872 v -6.621656 l 0.932203,-1.03161 c 0.721583,-0.79853 1.365515,-1.100928 2.850033,-1.338411 4.661428,-0.745701 7.404205,-3.827217 7.404205,-8.318641 0,-4.748482 -3.488092,-8.304631 -8.135593,-8.294328 -2.444874,0.0054 -4.266501,0.866163 -5.999332,2.834763 -1.359359,1.544314 -1.729225,2.518697 -2.303716,6.068954 -0.405074,2.503289 -3.472126,3.33712 -5.171529,1.405969 -0.921615,-1.047296 -0.997467,-2.836038 -0.243081,-5.73232 1.88554,-7.239077 8.990088,-12.017077 15.959174,-10.732973 7.14639,1.316775 11.995772,7.156045 11.995772,14.44443 0,6.27053 -3.586497,11.598042 -9.272723,13.774037 L 52,52.433073 v 5.063778 5.063776 l -0.990874,0.990871 c -1.007503,1.007505 -1.958628,1.193485 -3.313411,0.647895 z"
     id="path494"
     inkscape:connector-curvature="0" />
  <path
     style="fill:#ffffff;fill-opacity:1;stroke:#ffffff;stroke-width:2.0050714;stroke-miterlimit:4;stroke-dasharray:none;stroke-opacity:1"
     d="m 47.695715,77.419731 c -0.815616,-0.32846 -1.79741,-1.958566 -1.79741,-2.984301 0,-0.868531 1.248748,-2.411459 2.26412,-2.797503 1.022379,-0.388707 2.946491,0.347412 3.471307,1.328039 0.677297,1.265542 0.434146,2.747121 -0.624606,3.805872 -1.007503,1.007503 -1.958628,1.193483 -3.313411,0.647893 z"
     id="path496"
     inkscape:connector-curvature="0" />
  <path
     style="fill:#ffffff;fill-opacity:1;stroke:#ffffff;stroke-width:2.0050714;stroke-miterlimit:4;stroke-dasharray:none;stroke-opacity:1"
     d="m 42.677966,88.766875 c -7.287733,-1.365038 -13.965007,-4.665583 -19.036369,-9.409594 -2.295958,-2.147754 -2.72279,-3.298104 -1.472105,-3.96745 0.801273,-0.428829 1.493461,-0.124327 2.711864,1.192981 1.165034,1.259608 4.16941,3.524819 6.610169,4.983873 8.02731,4.798627 18.610379,5.969847 27.78859,3.075346 12.586373,-3.969323 21.797821,-14.473163 24.581478,-28.030336 l 0.410343,-1.998474 -1.057943,-0.827963 c -2.080607,-1.628322 -2.670779,-4.341094 -1.3984,-6.427857 0.928187,-1.522272 2.193926,-2.250056 3.913221,-2.250056 4.628508,0 6.241301,5.829456 2.419311,8.74463 -0.976261,0.744629 -1.172369,1.139324 -1.360213,2.737587 -0.120719,1.027133 -0.691536,3.351113 -1.268478,5.1644 -4.179563,13.136017 -14.537803,23.007435 -27.699251,26.397428 -4.231628,1.089942 -11.115332,1.369742 -15.142217,0.615485 z m 43.92059,-37.456768 c 1.211085,-0.648152 0.549613,-3.377904 -0.818529,-3.377904 -0.812495,0 -1.91562,1.07076 -1.91562,1.859416 0,1.510493 1.349091,2.259749 2.734149,1.518488 z"
     id="path498"
     inkscape:connector-curvature="0" />
  <path
     style="fill:#ffffff;fill-opacity:1;stroke:#ffffff;stroke-width:2.0050714;stroke-miterlimit:4;stroke-dasharray:none;stroke-opacity:1"
     d="m 10.135593,54.249498 c -1.7799774,-0.8194 -2.6406793,-2.057712 -2.7986988,-4.026552 -0.1170271,-1.458099 0.00176,-1.998065 0.6530707,-2.968709 0.4378637,-0.652542 1.2747368,-1.415254 1.8597179,-1.694915 0.9091302,-0.434627 1.0950642,-0.742963 1.2802322,-2.123013 0.365129,-2.721311 1.853361,-7.378155 3.409281,-10.668024 8.12711,-17.18413 27.111923,-26.0392786 44.822831,-20.906858 5.843627,1.693416 11.09181,4.686111 15.106546,8.614273 2.306519,2.256782 2.368061,2.359481 1.866935,3.115446 -0.828891,1.250414 -1.459576,1.106929 -3.552877,-0.808301 C 65.580776,16.193636 56.626041,12.923477 47.276085,13.468169 30.912063,14.421474 17.394409,26.438192 14.216314,42.857141 l -0.490234,2.53269 0.873723,0.651976 c 1.772815,1.322888 2.31709,4.269969 1.143927,6.194013 -1.246648,2.04456 -3.659246,2.910838 -5.608137,2.013678 z m 3.08852,-3.549301 c 0.516035,-1.040753 0.2205,-2.064156 -0.719801,-2.492587 -1.684904,-0.767691 -3.2510873,1.425861 -2.002854,2.805146 0.805003,0.889519 2.206399,0.728637 2.722655,-0.312559 z"
     id="path500"
     inkscape:connector-curvature="0" />
</svg>
