<?xml version="1.0" encoding="UTF-8" standalone="no"?>
<svg
   xmlns:dc="http://purl.org/dc/elements/1.1/"
   xmlns:cc="http://creativecommons.org/ns#"
   xmlns:rdf="http://www.w3.org/1999/02/22-rdf-syntax-ns#"
   xmlns:svg="http://www.w3.org/2000/svg"
   xmlns="http://www.w3.org/2000/svg"
   xmlns:sodipodi="http://sodipodi.sourceforge.net/DTD/sodipodi-0.dtd"
   xmlns:inkscape="http://www.inkscape.org/namespaces/inkscape"
   version="1.1"
   x="0px"
   y="0px"
   viewBox="0 0 100 100"
   xml:space="preserve"
   id="svg339"
   sodipodi:docname="answer_equal.svg"
   width="100"
   height="100"
   inkscape:version="0.92.5 (2060ec1f9f, 2020-04-08)"><metadata
   id="metadata345"><rdf:RDF><cc:Work
       rdf:about=""><dc:format>image/svg+xml</dc:format><dc:type
         rdf:resource="http://purl.org/dc/dcmitype/StillImage" /><dc:title /></cc:Work></rdf:RDF></metadata><defs
   id="defs343" /><sodipodi:namedview
   pagecolor="#ffffff"
   bordercolor="#666666"
   borderopacity="1"
   objecttolerance="10"
   gridtolerance="10"
   guidetolerance="10"
   inkscape:pageopacity="0"
   inkscape:pageshadow="2"
   inkscape:window-width="1920"
   inkscape:window-height="1031"
   id="namedview341"
   showgrid="false"
   inkscape:zoom="5.3400704"
   inkscape:cx="16.479843"
   inkscape:cy="62.5"
   inkscape:window-x="0"
   inkscape:window-y="25"
   inkscape:window-maximized="1"
   inkscape:current-layer="svg339" /><path
   d="m 91.896055,27.198678 c 0,0 -2.832789,-13.781152 -15.07775,-18.6231776 -5.75696,-2.327898 -16.265695,-3.445288 -26.591669,-3.445288 -10.325975,0 -20.83471,1.11739 -26.591669,3.352172 C 11.298626,13.32441 8.4658367,27.198678 8.4658367,27.198678 c -1.827606,7.821734 -2.467268,15.736585 -2.375888,22.720277 0,6.983691 0.548282,14.991658 2.375888,22.720277 0,0 2.8327893,13.781151 15.0777503,18.623177 5.756959,2.234782 16.265694,3.352172 26.591668,3.445288 10.325975,-0.09312 20.83471,-1.11739 26.591669,-3.445288 12.244961,-4.842026 15.077751,-18.623177 15.077751,-18.623177 1.827606,-7.821735 2.467268,-15.736586 2.375888,-22.720277 0.18276,-7.076808 -0.456902,-14.991659 -2.284508,-22.720277 z M 64.116442,62.396484 H 36.245449 c -2.193127,0 -3.929353,-1.769202 -3.929353,-4.003984 0,-2.234781 1.736226,-4.003983 3.929353,-4.003983 h 27.962373 c 2.193128,0 3.929354,1.769202 3.929354,4.003983 -0.09138,2.234782 -1.827607,4.003984 -4.020734,4.003984 z m 0,-17.692019 H 36.245449 c -2.193127,0 -3.929353,-1.769202 -3.929353,-4.003984 0,-2.234781 1.736226,-4.003983 3.929353,-4.003983 h 27.962373 c 2.193128,0 3.929354,1.769202 3.929354,4.003983 -0.09138,2.234782 -1.827607,4.003984 -4.020734,4.003984 z"
   id="path333"
   inkscape:connector-curvature="0"
   style="stroke-width:0.92244017" /><text
   x="5.6122279"
   y="109.87138"
   font-size="5px"
   font-weight="bold"
   id="text335"
   style="font-weight:bold;font-size:4.61220074px;font-family:'Helvetica Neue', Helvetica, Arial-Unicode, Arial, Sans-serif;fill:#000000;stroke-width:0.92244017"
   transform="scale(0.9906367,1.0094518)">Created by Aneeque Ahmed</text>

<text
   x="5.6122279"
   y="114.48357"
   font-size="5px"
   font-weight="bold"
   id="text337"
   style="font-weight:bold;font-size:4.61220074px;font-family:'Helvetica Neue', Helvetica, Arial-Unicode, Arial, Sans-serif;fill:#000000;stroke-width:0.92244017"
   transform="scale(0.9906367,1.0094518)">from the Noun Project</text>

<path
   style="fill:#ffffff;fill-opacity:1;stroke:#ffffff;stroke-width:1.107656;stroke-miterlimit:4;stroke-dasharray:none;stroke-opacity:1"
   d="m 34.625671,44.229943 c -1.426035,-0.751786 -2.15353,-1.94413 -2.15353,-3.529577 0,-1.574742 0.72425,-2.775616 2.099254,-3.480759 0.665943,-0.341516 1.319837,-0.356303 15.755782,-0.356303 h 15.061004 l 0.897621,0.608606 c 1.987032,1.347249 2.318005,3.983096 0.72197,5.749716 -1.268575,1.404159 -0.191003,1.320344 -16.867536,1.311982 -13.262902,-0.0067 -15.016265,-0.04097 -15.514565,-0.303665 z"
   id="path488"
   inkscape:connector-curvature="0" /><path
   style="fill:#ffffff;fill-opacity:1;stroke:#ffffff;stroke-width:1.107656;stroke-miterlimit:4;stroke-dasharray:none;stroke-opacity:1"
   d="m 34.589978,61.856775 c -0.59481,-0.296407 -1.153045,-0.764591 -1.488059,-1.248018 -0.477338,-0.688799 -0.536146,-0.932832 -0.536146,-2.22483 0,-1.310832 0.05433,-1.528085 0.56179,-2.246495 0.308985,-0.437428 0.898865,-0.971365 1.310844,-1.186527 0.738344,-0.385611 0.959235,-0.392006 15.449235,-0.447252 10.247865,-0.03907 14.913811,0.006 15.405523,0.148895 1.488795,0.43258 2.748369,2.103608 2.75309,3.652421 0.0025,0.826773 -0.676918,2.443842 -1.234913,2.939103 -0.19669,0.174578 -0.735312,0.488734 -1.196937,0.698125 -0.820628,0.372233 -1.16482,0.380803 -15.455916,0.384824 l -14.616596,0.0041 z"
   id="path490"
   inkscape:connector-curvature="0" /></svg>