<?xml version="1.0" encoding="UTF-8" standalone="no"?>
<!-- Created with Inkscape (http://www.inkscape.org/) -->

<svg
   xmlns:dc="http://purl.org/dc/elements/1.1/"
   xmlns:cc="http://creativecommons.org/ns#"
   xmlns:rdf="http://www.w3.org/1999/02/22-rdf-syntax-ns#"
   xmlns:svg="http://www.w3.org/2000/svg"
   xmlns="http://www.w3.org/2000/svg"
   xmlns:sodipodi="http://sodipodi.sourceforge.net/DTD/sodipodi-0.dtd"
   xmlns:inkscape="http://www.inkscape.org/namespaces/inkscape"
   width="296"
   height="181"
   viewBox="0 0 210 297"
   version="1.1"
   id="svg83"
   inkscape:version="0.92.5 (2060ec1f9f, 2020-04-08)"
   sodipodi:docname="backspace.svg">
  <defs
     id="defs77" />
  <sodipodi:namedview
     id="base"
     pagecolor="#ffffff"
     bordercolor="#666666"
     borderopacity="1.0"
     inkscape:pageopacity="0.0"
     inkscape:pageshadow="2"
     inkscape:zoom="0.98994949"
     inkscape:cx="418.18275"
     inkscape:cy="210.93919"
     inkscape:document-units="mm"
     inkscape:current-layer="svg83"
     showgrid="false"
     showguides="true"
     inkscape:window-width="1920"
     inkscape:window-height="1031"
     inkscape:window-x="0"
     inkscape:window-y="25"
     inkscape:window-maximized="1">
    <inkscape:grid
       type="xygrid"
       id="grid3788" />
  </sodipodi:namedview>
  <metadata
     id="metadata80">
    <rdf:RDF>
      <cc:Work
         rdf:about="">
        <dc:format>image/svg+xml</dc:format>
        <dc:type
           rdf:resource="http://purl.org/dc/dcmitype/StillImage" />
        <dc:title></dc:title>
      </cc:Work>
    </rdf:RDF>
  </metadata>
  <g
     inkscape:label="Layer 1"
     inkscape:groupmode="layer"
     id="layer1" />
  <g
     id="g3796"
     transform="matrix(14.326595,0,0,12.360281,-138.63788,-12.491883)">
    <title
       id="title3790">Layer 1</title>
    <path
       d="m 27.958,2 h -17.4 A 3.037,3.037 0 0 0 8.2,3.118 L 1.68,11.1 a 3.012,3.012 0 0 0 0,3.8 L 8.2,22.882 A 3.037,3.037 0 0 0 10.559,24 h 17.4 A 3.034,3.034 0 0 0 31,20.98 V 5.02 A 3.034,3.034 0 0 0 27.958,2 Z M 29,20.98 A 1.033,1.033 0 0 1 27.958,22 h -17.4 A 1.046,1.046 0 0 1 9.744,21.617 l -6.516,-7.98 a 1,1 0 0 1 0,-1.274 L 9.744,4.383 A 1.046,1.046 0 0 1 10.559,4 h 17.4 A 1.033,1.033 0 0 1 29,5.02 Z"
       id="svg_1"
       inkscape:connector-curvature="0" />
    <path
       d="m 24.949,8.05 a 1,1 0 0 0 -1.414,0 L 20,11.586 16.465,8.05 A 1,1 0 0 0 15.051,9.464 L 18.586,13 15.051,16.536 a 1,1 0 0 0 0,1.414 1.016,1.016 0 0 0 1.414,0 L 20,14.414 23.535,17.95 a 1.016,1.016 0 0 0 1.414,0 1,1 0 0 0 0,-1.414 L 21.414,13 24.949,9.464 a 1,1 0 0 0 0,-1.414 z"
       id="svg_2"
       inkscape:connector-curvature="0" />
    <text
       y="44"
       font-size="5px"
       font-weight="bold"
       id="svg_3"
       x="0"
       style="font-weight:bold;font-size:5px;font-family:'Helvetica Neue', Helvetica, Arial-Unicode, Arial, Sans-serif;fill:#000000">Created by iconpixel</text>
    <text
       y="49"
       font-size="5px"
       font-weight="bold"
       id="svg_4"
       x="0"
       style="font-weight:bold;font-size:5px;font-family:'Helvetica Neue', Helvetica, Arial-Unicode, Arial, Sans-serif;fill:#000000">from the Noun Project</text>
  </g>
  <path
     style="fill:#f9f9f9;stroke-width:1.01015258"
     d="M 87.377605,156.69754 C 85.582391,155.96572 28.104344,94.903831 27.026112,92.583036 c -0.572838,-1.232983 -0.572838,-2.927413 0,-4.376732 1.115654,-2.822678 57.061698,-62.139117 60.303039,-63.935916 1.731627,-0.959907 20.358589,-1.251235 80.734009,-1.262691 l 78.48302,-0.01489 2.83426,2.437485 2.83424,2.437486 0.29668,59.434357 c 0.16318,32.688895 0.0241,60.937065 -0.30888,62.773695 -0.33306,1.83663 -1.48934,4.22312 -2.56953,5.30331 -1.9133,1.91331 -4.01555,1.96189 -81.51347,1.8842 -43.75223,-0.0438 -80.086073,-0.29848 -80.741875,-0.5658 z M 141.86908,128.9164 c 1.18449,-0.63391 8.90263,-7.02977 17.15143,-14.21301 l 14.99783,-13.06045 8.61249,7.39449 c 24.74935,21.24924 24.45164,21.03155 28.76192,21.03155 7.01844,0 11.22663,-6.47606 7.58586,-11.674 -0.77894,-1.1121 -8.22721,-7.86718 -16.55172,-15.01129 l -15.13545,-12.9893 14.99851,-13.020221 c 15.62987,-13.5683 18.10493,-16.21063 18.10493,-19.328493 0,-2.820446 -5.46585,-7.778751 -8.57501,-7.778751 -3.99011,0 -5.86102,1.268256 -20.71942,14.045264 -7.50038,6.449717 -14.42255,12.339377 -15.3826,13.088129 -1.55352,1.211611 -3.47084,-0.122579 -17.4293,-12.128398 -8.62606,-7.419372 -16.8378,-13.875076 -18.24832,-14.34601 -5.68224,-1.897157 -11.56923,2.075818 -11.56923,7.807761 0,3.141414 1.157,4.412429 14.39467,15.81309 7.91707,6.818409 15.21921,13.164194 16.22698,14.101744 1.7466,1.624912 1.13243,2.304942 -13.13198,14.540035 -15.08176,12.93615 -18.72398,17.21877 -17.76448,20.88793 1.2678,4.84803 8.72526,7.48783 13.67289,4.83993 z"
     id="path3870"
     inkscape:connector-curvature="0"
     transform="matrix(1.640884,0,0,1.640884,-137.85083,0)" />
</svg>
