<?xml version="1.0" encoding="UTF-8" standalone="no"?>
<!-- Created with Inkscape (http://www.inkscape.org/) -->

<svg
   xmlns:dc="http://purl.org/dc/elements/1.1/"
   xmlns:cc="http://creativecommons.org/ns#"
   xmlns:rdf="http://www.w3.org/1999/02/22-rdf-syntax-ns#"
   xmlns:svg="http://www.w3.org/2000/svg"
   xmlns="http://www.w3.org/2000/svg"
   xmlns:sodipodi="http://sodipodi.sourceforge.net/DTD/sodipodi-0.dtd"
   xmlns:inkscape="http://www.inkscape.org/namespaces/inkscape"
   width="296"
   height="181"
   viewBox="0 0 210 297"
   version="1.1"
   id="svg83"
   inkscape:version="0.92.5 (2060ec1f9f, 2020-04-08)"
   sodipodi:docname="backspace.svg">
  <defs
     id="defs77" />
  <sodipodi:namedview
     id="base"
     pagecolor="#ffffff"
     bordercolor="#666666"
     borderopacity="1.0"
     inkscape:pageopacity="0.0"
     inkscape:pageshadow="2"
     inkscape:zoom="0.98994949"
     inkscape:cx="418.18275"
     inkscape:cy="210.93919"
     inkscape:document-units="mm"
     inkscape:current-layer="svg83"
     showgrid="false"
     showguides="true"
     inkscape:window-width="1920"
     inkscape:window-height="1031"
     inkscape:window-x="0"
     inkscape:window-y="25"
     inkscape:window-maximized="1">
    <inkscape:grid
       type="xygrid"
       id="grid3788" />
  </sodipodi:namedview>
  <metadata
     id="metadata80">
    <rdf:RDF>
      <cc:Work
         rdf:about="">
        <dc:format>image/svg+xml</dc:format>
        <dc:type
           rdf:resource="http://purl.org/dc/dcmitype/StillImage" />
        <dc:title />
      </cc:Work>
    </rdf:RDF>
  </metadata>
  <g
     inkscape:label="Layer 1"
     inkscape:groupmode="layer"
     id="layer1" />
  <g
     id="g3796"
     transform="matrix(11.186881,0,0,9.5684121,-76.955731,24.585143)">
    <title
       id="title3790">Layer 1</title>
    <path
       d="m 27.958,2 h -17.4 A 3.037,3.037 0 0 0 8.2,3.118 L 1.68,11.1 a 3.012,3.012 0 0 0 0,3.8 L 8.2,22.882 A 3.037,3.037 0 0 0 10.559,24 h 17.4 A 3.034,3.034 0 0 0 31,20.98 V 5.02 A 3.034,3.034 0 0 0 27.958,2 Z M 29,20.98 A 1.033,1.033 0 0 1 27.958,22 h -17.4 A 1.046,1.046 0 0 1 9.744,21.617 l -6.516,-7.98 a 1,1 0 0 1 0,-1.274 L 9.744,4.383 A 1.046,1.046 0 0 1 10.559,4 h 17.4 A 1.033,1.033 0 0 1 29,5.02 Z"
       id="svg_1"
       inkscape:connector-curvature="0" />
    <path
       d="m 24.949,8.05 a 1,1 0 0 0 -1.414,0 L 20,11.586 16.465,8.05 A 1,1 0 0 0 15.051,9.464 L 18.586,13 15.051,16.536 a 1,1 0 0 0 0,1.414 1.016,1.016 0 0 0 1.414,0 L 20,14.414 23.535,17.95 a 1.016,1.016 0 0 0 1.414,0 1,1 0 0 0 0,-1.414 L 21.414,13 24.949,9.464 a 1,1 0 0 0 0,-1.414 z"
       id="svg_2"
       inkscape:connector-curvature="0" />
    <text
       y="44"
       font-size="5px"
       font-weight="bold"
       id="svg_3"
       x="0"
       style="font-weight:bold;font-size:5px;font-family:'Helvetica Neue', Helvetica, Arial-Unicode, Arial, Sans-serif;fill:#000000">Created by iconpixel</text>
    <text
       y="49"
       font-size="5px"
       font-weight="bold"
       id="svg_4"
       x="0"
       style="font-weight:bold;font-size:5px;font-family:'Helvetica Neue', Helvetica, Arial-Unicode, Arial, Sans-serif;fill:#000000">from the Noun Project</text>
  </g>
  <path
     style="fill:#f9f9f9;stroke-width:1.28870535"
     d="m 35.613979,233.30059 c -2.300169,-0.9296 -75.945619,-78.4935 -77.327136,-81.44149 -0.733966,-1.5662 -0.733966,-3.71855 0,-5.55955 1.429464,-3.58551 73.11199,-78.932253 77.26506,-81.214645 2.218693,-1.219324 26.085043,-1.589378 103.442837,-1.603928 l 100.55869,-0.0189 3.63148,3.096219 3.63146,3.096221 0.38013,75.496533 c 0.20908,41.52308 0.0309,77.40534 -0.39577,79.73832 -0.42674,2.33299 -1.90825,5.36443 -3.29228,6.73653 -2.45148,2.43039 -5.14504,2.4921 -104.44155,2.39341 -56.058844,-0.0557 -102.612652,-0.37914 -103.452921,-0.7187 z M 105.4328,198.01158 c 1.51766,-0.80523 11.40676,-8.92958 21.97577,-18.05409 l 19.21642,-16.59004 11.03501,9.39285 c 31.71084,26.99186 31.32938,26.71534 36.85206,26.71534 8.99258,0 14.38445,-8.22622 9.71961,-14.82891 -0.99804,-1.41264 -10.54136,-9.99329 -21.20739,-19.0681 l -19.39274,-16.49966 19.21729,-16.53894 c 20.02623,-17.23514 23.19748,-20.59157 23.19748,-24.55204 0,-3.58267 -7.00329,-9.880963 -10.98699,-9.880963 -5.11244,0 -7.5096,1.61101 -26.54738,17.841013 -9.61008,8.19275 -18.47931,15.6741 -19.7094,16.6252 -1.9905,1.53905 -4.44712,-0.15571 -22.33181,-15.40611 -11.0524,-9.42446 -21.57393,-17.624823 -23.38121,-18.223033 -7.280524,-2.40986 -14.823404,2.636813 -14.823404,9.917823 0,3.99038 1.48244,5.60489 18.443594,20.08658 10.14397,8.66109 19.50006,16.72183 20.79129,17.91275 2.23789,2.06405 1.45096,2.92786 -16.82573,18.46949 -19.323944,16.43216 -23.990644,21.87216 -22.761264,26.53291 1.62441,6.15821 11.17949,9.51142 17.518794,6.14793 z"
     id="path3870"
     inkscape:connector-curvature="0" />
</svg>
