<svg width="48" height="48" xmlns="http://www.w3.org/2000/svg">
 <!-- Created with Method Draw - http://github.com/duopixel/Method-Draw/ -->

 <g>
  <title>background</title>
  <rect x="-1" y="-1" width="50" height="50" id="canvas_background" fill-opacity="0" fill="#ff0000"/>
  <g id="canvasGrid" display="none">
   <rect id="svg_1" width="100%" height="100%" x="0" y="0" stroke-width="0" fill="url(#gridpattern)"/>
  </g>
 </g>
 <g>
  <title>Layer 1</title>
  <ellipse fill="#FFF093" stroke="#000" stroke-width="1.5" stroke-opacity="null" cx="21.81171" cy="24.56223" id="svg_19" rx="20.38773" ry="19.32457"/>
  <text fill="#000000" stroke="#000" stroke-width="0" x="8.23869" y="34.63263" id="svg_4" font-size="32" font-family="Helvetica, Arial, sans-serif" text-anchor="start" xml:space="preserve" font-style="italic">S</text>
  <ellipse fill="#9ACEE6" stroke="#000" stroke-width="1.5" cx="8.17819" cy="8.99" id="svg_6" rx="3.81488" ry="3.87742"/>
  <ellipse fill="#8CD79F" stroke="#000" stroke-width="1.5" cx="42.32452" cy="24.62477" id="svg_7" rx="3.81488" ry="3.87742"/>
  <ellipse fill="#FFAAB8" stroke="#000" stroke-width="1.5" cx="8.30327" cy="40.25953" id="svg_14" rx="3.81488" ry="3.87742"/>
  <path fill="#FFF093" stroke="#000" stroke-width="1.5" stroke-opacity="null" d="m34.55757,24.58103l-1.59997,-2.68918l2.87679,2.68918l-2.87679,2.68918l1.59997,-2.68918z" id="svg_24"/>
  <path fill="#FFF093" stroke="#000" stroke-width="1.5" stroke-opacity="null" d="m7.81689,24.7197c1.00169,0 1.81363,-0.644 1.81363,-1.4384c0,-0.7944 -0.81194,-1.4384 -1.81363,-1.4384c-1.00164,0 -1.81363,0.64399 -1.81363,1.4384c0,0.7944 0.81199,1.4384 1.81363,1.4384zm0.29137,-2.40077l0.44127,0.35016l-0.77205,0.61228l0.77205,0.61232l-0.44127,0.35005l-1.21328,-0.96237l1.21328,-0.96244l0,0z" id="svg_30"/>
  <path fill="none" stroke-width="1.5" id="svg_35" d="m5.27612,4.71651c0,-0.12508 0.00677,-0.2624 -0.43777,-0.50031c-0.49318,-0.26394 -0.81714,-0.36758 -0.93809,-0.43777c-0.19503,-0.11318 -0.20593,-0.08086 -0.25016,-0.12508c-0.08844,-0.08844 0,-0.12508 -0.06254,-0.12508c-0.25016,0 -0.43777,0 -0.50031,0c-0.06254,0 -0.18762,0 -0.3127,0c-0.06254,0 -0.12508,0 -0.18762,0c-0.12508,0 -0.24934,0.36004 -0.3127,0.75047c-0.01002,0.06173 0.17689,0.38596 0,0.56285c-0.04422,0.04422 -0.06254,0.12508 -0.06254,0.18762c0,0 0,0.06254 0,0.12508c0,0 0,0.06254 0,0.12508l0,0.12508l0,0.06254l0,0"/>
  <path fill="none" stroke-width="1.5" id="svg_39" d="m2.21171,4.09112c0.56285,0 1.37586,0 1.56348,0c0.25016,0 0.43777,0 0.75047,0c0.3127,0 0.37523,0 0.62539,0c0.06254,0 0.3127,0 0.43777,0c0.06254,0 0.12508,0 0.18762,0c0.06254,0 0.06254,0 0.06254,0c0.12508,0 -0.65973,-0.12227 -0.87555,-0.18762c-0.11971,-0.03625 -0.39355,-0.1434 -0.43777,-0.18762c-0.13267,-0.13267 0,-0.25016 0,-0.25016c0.3127,-0.06254 0.50031,-0.06254 0.56285,-0.06254c0.12508,0 0.12508,0 0.12508,0.56285c0,0.25016 0,0.3127 0,0.37523c0,0.06254 -0.01545,0.10079 -0.12508,0.18762c-0.3829,0.30326 -0.56285,0.50031 -0.68793,0.56285c-0.12508,0.06254 -0.33101,0.10676 -0.37523,0.06254c-0.08844,-0.08844 0,-0.56285 0,-0.81301c0,-0.12508 0,-0.12508 0,-0.25016c0,-0.06254 0.3863,-0.45023 0.81301,-0.68793c0.17277,-0.09624 0.3127,-0.18762 0.37523,-0.18762c0.06254,0 0.06254,0 0.18762,0l0.12508,0l0.06254,0l0.06254,0"/>
  <path fill="none" stroke-width="1.5" id="svg_40" d="m4.08788,3.65335c0.3127,0 0.75047,0 0.93809,0c0.18762,0 0.75047,0 1.06316,0c0.06254,0 0.18762,0 0.25016,0l0.06254,0"/>
 </g>
</svg>