<?xml version="1.0" encoding="UTF-8" standalone="no"?>
<!-- Created with Inkscape (http://www.inkscape.org/) -->

<svg
   xmlns:dc="http://purl.org/dc/elements/1.1/"
   xmlns:cc="http://creativecommons.org/ns#"
   xmlns:rdf="http://www.w3.org/1999/02/22-rdf-syntax-ns#"
   xmlns:svg="http://www.w3.org/2000/svg"
   xmlns="http://www.w3.org/2000/svg"
   xmlns:sodipodi="http://sodipodi.sourceforge.net/DTD/sodipodi-0.dtd"
   xmlns:inkscape="http://www.inkscape.org/namespaces/inkscape"
   width="296"
   height="200"
   viewBox="0 0 210 297"
   version="1.1"
   id="svg83"
   inkscape:version="0.92.5 (2060ec1f9f, 2020-04-08)"
   sodipodi:docname="insertOver.svg">
  <defs
     id="defs77" />
  <sodipodi:namedview
     id="base"
     pagecolor="#ffffff"
     bordercolor="#666666"
     borderopacity="1.0"
     inkscape:pageopacity="0.0"
     inkscape:pageshadow="2"
     inkscape:zoom="1.979899"
     inkscape:cx="166.93647"
     inkscape:cy="108.07511"
     inkscape:document-units="mm"
     inkscape:current-layer="svg83"
     showgrid="false"
     showguides="true"
     inkscape:window-width="1920"
     inkscape:window-height="1031"
     inkscape:window-x="0"
     inkscape:window-y="25"
     inkscape:window-maximized="1">
    <inkscape:grid
       type="xygrid"
       id="grid3788" />
  </sodipodi:namedview>
  <metadata
     id="metadata80">
    <rdf:RDF>
      <cc:Work
         rdf:about="">
        <dc:format>image/svg+xml</dc:format>
        <dc:type
           rdf:resource="http://purl.org/dc/dcmitype/StillImage" />
        <dc:title></dc:title>
      </cc:Work>
    </rdf:RDF>
  </metadata>
  <g
     inkscape:label="Layer 1"
     inkscape:groupmode="layer"
     id="layer1" />
  <g
     id="g209"
     transform="matrix(1.485,0,0,1.485,2250.2852,-1312.5507)">
    <g
       id="g109">
      <line
         id="line105"
         y2="1844.4771"
         x2="-3319.667"
         y1="1861.604"
         x1="-3319.667"
         style="fill:none" />
      <path
         id="path107"
         d="m -3319.667,1864.604 c -1.657,0 -3,-1.343 -3,-3 v -17.128 c 0,-1.657 1.343,-3 3,-3 1.657,0 3,1.343 3,3 v 17.128 c 0,1.658 -1.343,3 -3,3 z"
         inkscape:connector-curvature="0" />
    </g>
    <g
       id="g115">
      <line
         id="line111"
         y2="1829.382"
         x2="-3301.4861"
         y1="1861.604"
         x1="-3301.4861"
         style="fill:none" />
      <path
         id="path113"
         d="m -3301.486,1864.604 c -1.657,0 -3,-1.343 -3,-3 v -32.223 c 0,-1.657 1.343,-3 3,-3 1.657,0 3,1.343 3,3 v 32.223 c 0,1.658 -1.343,3 -3,3 z"
         inkscape:connector-curvature="0" />
    </g>
    <g
       id="g119">
      <line
         id="line117"
         y2="1813.125"
         x2="-3283.3049"
         y1="1861.604"
         x1="-3283.3049"
         style="fill:none" />
    </g>
    <g
       id="g131">
      <g
         id="g129">
        <g
           id="g123">
          <path
             id="path121"
             d="m -3256.098,1846.671 c -1.657,0 -3,-1.343 -3,-3 v -9.441 c 0,-1.657 1.343,-3 3,-3 1.657,0 3,1.343 3,3 v 9.441 c 0,1.657 -1.343,3 -3,3 z"
             inkscape:connector-curvature="0" />
        </g>
        <g
           id="g127">
          <path
             id="path125"
             d="m -3256.1,1854.95 c -0.79,0 -1.56,-0.32 -2.12,-0.881 -0.56,-0.56 -0.88,-1.329 -0.88,-2.119 0,-0.79 0.32,-1.561 0.88,-2.12 1.11,-1.12 3.13,-1.12 4.24,0 0.56,0.55 0.88,1.33 0.88,2.12 0,0.79 -0.32,1.56 -0.88,2.119 -0.56,0.561 -1.33,0.881 -2.12,0.881 z"
             inkscape:connector-curvature="0" />
        </g>
      </g>
    </g>
    <g
       id="g135">
      <line
         id="line133"
         y2="1797.74"
         x2="-3265.124"
         y1="1829.382"
         x1="-3265.124"
         style="fill:none" />
    </g>
    <g
       id="g141">
      <line
         id="line137"
         y2="1782.354"
         x2="-3246.9431"
         y1="1830.405"
         x1="-3246.9431"
         style="fill:none" />
      <path
         id="path139"
         d="m -3227.54,1860.34 -16.4,-30.68 v -47.31 c 0,-1.65 -1.35,-3 -3,-3 -1.66,0 -3,1.35 -3,3 v 36.09 l -3.51,-6.57 c -0.52,-0.98 -1.54,-1.59 -2.65,-1.59 -1.11,0 -2.12,0.61 -2.64,1.59 l -3.38,6.32 v -20.45 c 0,-1.66 -1.35,-3 -3,-3 -1.66,0 -3,1.34 -3,3 v 31.67 l -12.18,22.78 v -39.07 c 0,-1.65 -1.35,-3 -3,-3 -1.66,0 -3,1.35 -3,3 v 48.48 c 0,1.66 1.34,3 3,3 0.1,0 0.2,-0.01 0.3,-0.02 0.31,0.11 0.65,0.17 0.99,0.17 h 51.83 c 1.05,0 2.03,-0.55 2.57,-1.46 0.54,-0.9 0.57,-2.02 0.07,-2.95 z m -49.47,-1.59 20.91,-39.11 6.5,12.16 c 0.01,0.02 0.03,0.05 0.04,0.07 l 14.37,26.88 z"
         inkscape:connector-curvature="0"
         style="fill:#000000" />
    </g>
    <g
       id="g145">
      <path
         id="path143"
         d="M 82.4,95 H 17.6 c -1.75,0 -3.168,-1.418 -3.168,-3.168 V 62.059 c 0,-1.75 1.418,-3.168 3.168,-3.168 h 64.8 c 1.75,0 3.168,1.418 3.168,3.168 V 91.832 C 85.568,93.582 84.15,95 82.4,95 Z M 20.768,88.664 H 79.231 V 65.227 H 20.768 Z"
         inkscape:connector-curvature="0"
         style="fill:#000000" />
    </g>
    <g
       id="g149">
      <path
         id="path147"
         d="M 82.4,41.109 H 17.6 c -1.75,0 -3.168,-1.418 -3.168,-3.168 V 8.168 C 14.432,6.418 15.85,5 17.6,5 h 64.8 c 1.75,0 3.168,1.418 3.168,3.168 v 29.773 c 0,1.75 -1.418,3.168 -3.168,3.168 z M 20.768,34.773 H 79.231 V 11.336 H 20.768 Z"
         inkscape:connector-curvature="0"
         style="fill:#000000" />
    </g>
    <g
       id="g163">
      <g
         id="g153">
        <path
           id="path151"
           d="m 13.509,52.112 h -2.323 c -1.166,0 -2.112,-0.946 -2.112,-2.112 0,-1.166 0.946,-2.112 2.112,-2.112 h 2.323 c 1.166,0 2.112,0.946 2.112,2.112 0,1.166 -0.946,2.112 -2.112,2.112 z"
           inkscape:connector-curvature="0"
           style="fill:#000000" />
      </g>
      <g
         id="g157">
        <path
           id="path155"
           d="m 77.85,52.112 h -4.226 c -1.166,0 -2.112,-0.946 -2.112,-2.112 0,-1.166 0.946,-2.112 2.112,-2.112 h 4.226 c 1.166,0 2.112,0.946 2.112,2.112 0,1.166 -0.946,2.112 -2.112,2.112 z m -12.869,0 h -4.226 c -1.166,0 -2.112,-0.946 -2.112,-2.112 0,-1.166 0.946,-2.112 2.112,-2.112 h 4.226 c 1.166,0 2.112,0.946 2.112,2.112 0,1.166 -0.945,2.112 -2.112,2.112 z m -12.868,0 h -4.225 c -1.166,0 -2.112,-0.946 -2.112,-2.112 0,-1.166 0.946,-2.112 2.112,-2.112 h 4.225 c 1.166,0 2.112,0.946 2.112,2.112 0,1.166 -0.946,2.112 -2.112,2.112 z m -12.869,0 H 35.02 c -1.166,0 -2.112,-0.946 -2.112,-2.112 0,-1.166 0.946,-2.112 2.112,-2.112 h 4.225 c 1.166,0 2.112,0.946 2.112,2.112 0,1.166 -0.946,2.112 -2.113,2.112 z m -12.867,0 h -4.226 c -1.166,0 -2.112,-0.946 -2.112,-2.112 0,-1.166 0.946,-2.112 2.112,-2.112 h 4.226 c 1.166,0 2.112,0.946 2.112,2.112 0,1.166 -0.946,2.112 -2.112,2.112 z"
           inkscape:connector-curvature="0"
           style="fill:#000000" />
      </g>
      <g
         id="g161">
        <path
           id="path159"
           d="m 88.815,52.112 h -2.322 c -1.166,0 -2.112,-0.946 -2.112,-2.112 0,-1.166 0.946,-2.112 2.112,-2.112 h 2.322 c 1.166,0 2.112,0.946 2.112,2.112 0,1.166 -0.946,2.112 -2.112,2.112 z"
           inkscape:connector-curvature="0"
           style="fill:#000000" />
      </g>
    </g>
    <text
       id="text165"
       font-weight="bold"
       font-size="5px"
       y="115"
       x="0"
       style="font-weight:bold;font-size:5px;font-family:'Helvetica Neue', Helvetica, Arial-Unicode, Arial, Sans-serif;fill:#000000">Created by Garrett Knoll</text>
    <text
       id="text167"
       font-weight="bold"
       font-size="5px"
       y="120"
       x="0"
       style="font-weight:bold;font-size:5px;font-family:'Helvetica Neue', Helvetica, Arial-Unicode, Arial, Sans-serif;fill:#000000">from the Noun Project</text>
  </g>
  <g
     transform="matrix(3.5322776,0,0,3.0872871,-62.663391,-6.3332427)"
     id="g416">
    <path
       style="fill:#000000"
       inkscape:connector-curvature="0"
       d="M 82.4,95 H 17.6 c -1.75,0 -3.168,-1.418 -3.168,-3.168 V 62.059 c 0,-1.75 1.418,-3.168 3.168,-3.168 h 64.8 c 1.75,0 3.168,1.418 3.168,3.168 V 91.832 C 85.568,93.582 84.15,95 82.4,95 Z M 20.768,88.664 H 79.231 V 65.227 H 20.768 Z"
       id="path414" />
  </g>
  <g
     transform="matrix(3.5322776,0,0,3.0872871,-62.663391,-6.3332427)"
     id="g420">
    <path
       style="fill:#000000"
       inkscape:connector-curvature="0"
       d="M 82.4,41.109 H 17.6 c -1.75,0 -3.168,-1.418 -3.168,-3.168 V 8.168 C 14.432,6.418 15.85,5 17.6,5 h 64.8 c 1.75,0 3.168,1.418 3.168,3.168 v 29.773 c 0,1.75 -1.418,3.168 -3.168,3.168 z M 20.768,34.773 H 79.231 V 11.336 H 20.768 Z"
       id="path418" />
  </g>
  <g
     transform="matrix(3.5322776,0,0,3.0872871,-62.663391,-6.3332427)"
     id="g434">
    <g
       id="g424">
      <path
         style="fill:#000000"
         inkscape:connector-curvature="0"
         d="m 13.509,52.112 h -2.323 c -1.166,0 -2.112,-0.946 -2.112,-2.112 0,-1.166 0.946,-2.112 2.112,-2.112 h 2.323 c 1.166,0 2.112,0.946 2.112,2.112 0,1.166 -0.946,2.112 -2.112,2.112 z"
         id="path422" />
    </g>
    <g
       id="g428">
      <path
         style="fill:#000000"
         inkscape:connector-curvature="0"
         d="m 77.85,52.112 h -4.226 c -1.166,0 -2.112,-0.946 -2.112,-2.112 0,-1.166 0.946,-2.112 2.112,-2.112 h 4.226 c 1.166,0 2.112,0.946 2.112,2.112 0,1.166 -0.946,2.112 -2.112,2.112 z m -12.869,0 h -4.226 c -1.166,0 -2.112,-0.946 -2.112,-2.112 0,-1.166 0.946,-2.112 2.112,-2.112 h 4.226 c 1.166,0 2.112,0.946 2.112,2.112 0,1.166 -0.945,2.112 -2.112,2.112 z m -12.868,0 h -4.225 c -1.166,0 -2.112,-0.946 -2.112,-2.112 0,-1.166 0.946,-2.112 2.112,-2.112 h 4.225 c 1.166,0 2.112,0.946 2.112,2.112 0,1.166 -0.946,2.112 -2.112,2.112 z m -12.869,0 H 35.02 c -1.166,0 -2.112,-0.946 -2.112,-2.112 0,-1.166 0.946,-2.112 2.112,-2.112 h 4.225 c 1.166,0 2.112,0.946 2.112,2.112 0,1.166 -0.946,2.112 -2.113,2.112 z m -12.867,0 h -4.226 c -1.166,0 -2.112,-0.946 -2.112,-2.112 0,-1.166 0.946,-2.112 2.112,-2.112 h 4.226 c 1.166,0 2.112,0.946 2.112,2.112 0,1.166 -0.946,2.112 -2.112,2.112 z"
         id="path426" />
    </g>
    <g
       id="g432">
      <path
         style="fill:#000000"
         inkscape:connector-curvature="0"
         d="m 88.815,52.112 h -2.322 c -1.166,0 -2.112,-0.946 -2.112,-2.112 0,-1.166 0.946,-2.112 2.112,-2.112 h 2.322 c 1.166,0 2.112,0.946 2.112,2.112 0,1.166 -0.946,2.112 -2.112,2.112 z"
         id="path430" />
    </g>
  </g>
  <text
     style="font-weight:bold;font-size:16.51147652px;font-family:'Helvetica Neue', Helvetica, Arial-Unicode, Arial, Sans-serif;fill:#000000;stroke-width:3.30229545"
     x="-64.136696"
     y="414.28867"
     font-size="5px"
     font-weight="bold"
     id="text436"
     transform="scale(1.0696431,0.93489127)">Created by Garrett Knoll</text>
  <text
     style="font-weight:bold;font-size:16.51147652px;font-family:'Helvetica Neue', Helvetica, Arial-Unicode, Arial, Sans-serif;fill:#000000;stroke-width:3.30229545"
     x="-64.136696"
     y="430.80011"
     font-size="5px"
     font-weight="bold"
     id="text438"
     transform="scale(1.0696431,0.93489127)">from the Noun Project</text>
</svg>
