<?xml version="1.0" encoding="UTF-8" standalone="no"?>
<!-- Created with Inkscape (http://www.inkscape.org/) -->

<svg
   xmlns:dc="http://purl.org/dc/elements/1.1/"
   xmlns:cc="http://creativecommons.org/ns#"
   xmlns:rdf="http://www.w3.org/1999/02/22-rdf-syntax-ns#"
   xmlns:svg="http://www.w3.org/2000/svg"
   xmlns="http://www.w3.org/2000/svg"
   xmlns:sodipodi="http://sodipodi.sourceforge.net/DTD/sodipodi-0.dtd"
   xmlns:inkscape="http://www.inkscape.org/namespaces/inkscape"
   width="296"
   height="200"
   viewBox="0 0 210 297"
   version="1.1"
   id="svg83"
   inkscape:version="0.92.5 (2060ec1f9f, 2020-04-08)"
   sodipodi:docname="save.svg">
  <defs
     id="defs77" />
  <sodipodi:namedview
     id="base"
     pagecolor="#ffffff"
     bordercolor="#666666"
     borderopacity="1.0"
     inkscape:pageopacity="0.0"
     inkscape:pageshadow="2"
     inkscape:zoom="2.8"
     inkscape:cx="148.76852"
     inkscape:cy="77.938582"
     inkscape:document-units="mm"
     inkscape:current-layer="svg83"
     showgrid="false"
     showguides="true"
     inkscape:window-width="1920"
     inkscape:window-height="1031"
     inkscape:window-x="0"
     inkscape:window-y="25"
     inkscape:window-maximized="1">
    <inkscape:grid
       type="xygrid"
       id="grid3788" />
  </sodipodi:namedview>
  <metadata
     id="metadata80">
    <rdf:RDF>
      <cc:Work
         rdf:about="">
        <dc:format>image/svg+xml</dc:format>
        <dc:type
           rdf:resource="http://purl.org/dc/dcmitype/StillImage" />
        <dc:title></dc:title>
      </cc:Work>
    </rdf:RDF>
  </metadata>
  <g
     inkscape:label="Layer 1"
     inkscape:groupmode="layer"
     id="layer1" />
  <g
     id="g5136"
     transform="matrix(3.4012804,0,0,3.2255984,-62.460757,-13.224817)">
    <path
       id="path5116"
       d="m 52.65491,13.301 h 10.54626 a 0.44464,0.44464 0 0 1 0.44464,0.44464 v 16.26693 a 0.4447,0.4447 0 0 1 -0.4447,0.4447 H 52.655 a 0.4447,0.4447 0 0 1 -0.4447,-0.4447 V 13.74567 A 0.44464,0.44464 0 0 1 52.65491,13.301 Z"
       inkscape:connector-curvature="0" />
    <path
       id="path5118"
       d="M 79.92621,6.40833 A 4.80829,4.80829 0 0 0 76.52625,5 H 9.80835 A 4.80834,4.80834 0 0 0 5,9.80829 V 90.19165 A 4.80835,4.80835 0 0 0 9.80835,95 h 80.3833 A 4.80835,4.80835 0 0 0 95,90.19165 V 23.47382 a 4.80832,4.80832 0 0 0 -1.40833,-3.4 z M 27.55005,10.93475 A 1.93474,1.93474 0 0 1 29.4848,9 h 41.0304 a 1.93474,1.93474 0 0 1 1.9348,1.93475 v 21.88886 a 1.93474,1.93474 0 0 1 -1.93475,1.93475 H 29.4848 a 1.93474,1.93474 0 0 1 -1.93475,-1.93475 z m 54.7124,72.89569 a 2.51665,2.51665 0 0 1 -2.51666,2.51667 H 20.25415 a 2.51664,2.51664 0 0 1 -2.5166,-2.51667 V 50.275 a 2.51659,2.51659 0 0 1 2.5166,-2.5166 h 59.49164 a 2.5166,2.5166 0 0 1 2.51666,2.5166 z"
       inkscape:connector-curvature="0" />
    <text
       id="text5120"
       font-weight="bold"
       font-size="5px"
       y="115"
       x="0"
       style="font-weight:bold;font-size:5px;font-family:'Helvetica Neue', Helvetica, Arial-Unicode, Arial, Sans-serif;fill:#000000">Created by Markus</text>
    <text
       id="text5122"
       font-weight="bold"
       font-size="5px"
       y="120"
       x="0"
       style="font-weight:bold;font-size:5px;font-family:'Helvetica Neue', Helvetica, Arial-Unicode, Arial, Sans-serif;fill:#000000">from the Noun Project</text>
  </g>
  <path
     style="fill:#ffffff;fill-opacity:1;stroke-width:0.35714287"
     d="m 80.122575,178.28168 c -1.696961,-0.51476 -3.067306,-1.75631 -3.657858,-3.31406 -0.51595,-1.36097 -0.563701,-5.27758 -0.474244,-38.89798 0.09878,-37.123629 0.104615,-37.391523 0.835827,-38.370791 0.404994,-0.542385 1.18016,-1.317513 1.722591,-1.722507 l 0.986238,-0.736353 69.885181,-0.09193 c 67.52901,-0.08883 69.92731,-0.06955 71.13456,0.572004 0.68715,0.365166 1.61097,1.193696 2.05293,1.841178 l 0.80358,1.17724 v 37.930079 37.93008 l -0.80479,1.19422 c -0.44263,0.65683 -1.36674,1.52434 -2.05357,1.92782 -1.24714,0.73263 -1.33989,0.73367 -70.35593,0.79402 -38.00893,0.0332 -69.54246,-0.0716 -70.074515,-0.23302 z"
     id="path5157"
     inkscape:connector-curvature="0"
     transform="matrix(1.485,0,0,1.485,-114.78,0)" />
  <path
     style="fill:#ffffff;fill-opacity:1;stroke-width:0.35714287"
     d="m 101.0077,65.960493 c -0.63453,-0.275843 -1.477678,-1.032947 -1.87367,-1.68245 -0.703384,-1.153683 -0.719984,-1.744983 -0.719984,-25.645197 0,-23.635343 0.02362,-24.503027 0.697157,-25.607661 1.469597,-2.410223 -2.142116,-2.249482 50.543907,-2.249482 40.42368,0 47.89326,0.0775 48.92259,0.50758 2.42252,1.012194 2.33368,-0.02903 2.33368,27.349563 0,27.257597 0.092,26.152236 -2.27039,27.273272 -1.12017,0.531553 -5.49787,0.582617 -48.85502,0.569892 -40.08234,-0.01176 -47.8073,-0.09341 -48.77827,-0.515517 z m 79.57001,-8.768783 c 0.6691,-0.358092 0.69081,-0.9413 0.69081,-18.558864 0,-17.617564 -0.0217,-18.200772 -0.69081,-18.558863 -0.43733,-0.234051 -5.14563,-0.369708 -12.83163,-0.369708 -10.56093,0 -12.21386,0.07303 -12.70205,0.561224 -0.4952,0.495195 -0.56123,2.656154 -0.56123,18.367347 0,15.711193 0.066,17.87215 0.56123,18.367347 0.48819,0.488192 2.14112,0.561225 12.70205,0.561225 7.686,0 12.3943,-0.135658 12.83163,-0.369708 z"
     id="path5159"
     inkscape:connector-curvature="0"
     transform="matrix(1.485,0,0,1.485,-114.78,0)" />
  <path
     style="fill:#ffffff;fill-opacity:1;stroke-width:0.35714287"
     d="m 80.122575,178.28168 c -1.696961,-0.51476 -3.067306,-1.75631 -3.657858,-3.31406 -0.51595,-1.36097 -0.563701,-5.27758 -0.474244,-38.89798 0.09924,-37.296201 0.101241,-37.387023 0.846598,-38.392859 0.410918,-0.554521 1.278435,-1.369828 1.927816,-1.811792 l 1.180691,-0.803571 h 69.684902 c 67.13722,0 69.73039,0.02418 70.92932,0.661289 0.68444,0.36371 1.60604,1.191048 2.048,1.83853 l 0.80358,1.17724 v 37.930083 37.93008 l -0.80479,1.19422 c -0.44263,0.65683 -1.36674,1.52434 -2.05357,1.92782 -1.24714,0.73263 -1.33989,0.73367 -70.35593,0.79402 -38.00893,0.0332 -69.54246,-0.0716 -70.074515,-0.23302 z"
     id="path5161"
     inkscape:connector-curvature="0"
     transform="matrix(1.485,0,0,1.485,-114.78,0)" />
  <path
     style="fill:#ffffff;fill-opacity:1;stroke-width:0.35714287"
     d="m 101.0077,65.960493 c -0.63453,-0.275843 -1.477678,-1.032947 -1.87367,-1.68245 -0.70349,-1.153858 -0.719894,-1.741386 -0.716054,-25.645197 0.003,-18.854522 0.106283,-24.666563 0.450296,-25.346423 0.245502,-0.485176 0.990114,-1.248568 1.654698,-1.696429 l 1.20832,-0.814291 h 47.8158 c 40.51704,0 48.00123,0.07748 49.03061,0.50758 2.42252,1.012194 2.33368,-0.02903 2.33368,27.349563 0,27.378589 0.0888,26.337368 -2.33368,27.349564 -1.8069,0.754972 -95.83152,0.73385 -97.57,-0.02193 z m 79.91152,-9.113361 c 0.20113,-0.318439 0.34058,-7.731604 0.34383,-18.278061 0.005,-15.829061 -0.0565,-17.804277 -0.56881,-18.316631 -0.50969,-0.509687 -1.97268,-0.562772 -13.00636,-0.471939 -6.83764,0.05629 -12.56582,0.236109 -12.72929,0.399599 -0.35816,0.358206 -0.62553,31.628975 -0.2973,34.770882 0.17087,1.635643 0.38681,2.253914 0.82982,2.375928 0.32936,0.09072 6.10929,0.140411 12.84429,0.110436 10.45564,-0.04654 12.29491,-0.1328 12.58382,-0.590214 z"
     id="path5167"
     inkscape:connector-curvature="0"
     transform="matrix(1.485,0,0,1.485,-114.78,0)" />
  <path
     style="fill:#ffffff;fill-opacity:1;stroke-width:0.35714287"
     d="m 79.72702,178.11729 c -1.816262,-0.65026 -2.606513,-1.4192 -3.277283,-3.18889 -0.49632,-1.30945 -0.547625,-5.65041 -0.459264,-38.85876 0.09924,-37.296201 0.101241,-37.387023 0.846598,-38.392859 0.410918,-0.554521 1.278435,-1.369828 1.927816,-1.811792 l 1.180691,-0.803571 h 69.684902 c 67.13722,0 69.73039,0.02418 70.92932,0.661289 0.68444,0.36371 1.60604,1.191048 2.048,1.83853 l 0.80358,1.17724 v 37.930083 37.93008 l -0.80479,1.19422 c -0.44263,0.65683 -1.36674,1.52434 -2.05357,1.92782 -1.2469,0.73248 -1.35338,0.73371 -70.35593,0.80908 -57.661351,0.063 -69.332876,-0.005 -70.47007,-0.41247 z"
     id="path5169"
     inkscape:connector-curvature="0"
     transform="matrix(1.485,0,0,1.485,-114.78,0)" />
</svg>
