<?xml version="1.0" encoding="UTF-8" standalone="no"?>
<!-- Created with Inkscape (http://www.inkscape.org/) -->

<svg
   xmlns:dc="http://purl.org/dc/elements/1.1/"
   xmlns:cc="http://creativecommons.org/ns#"
   xmlns:rdf="http://www.w3.org/1999/02/22-rdf-syntax-ns#"
   xmlns:svg="http://www.w3.org/2000/svg"
   xmlns="http://www.w3.org/2000/svg"
   xmlns:sodipodi="http://sodipodi.sourceforge.net/DTD/sodipodi-0.dtd"
   xmlns:inkscape="http://www.inkscape.org/namespaces/inkscape"
   width="296"
   height="200"
   viewBox="0 0 210 297"
   version="1.1"
   id="svg83"
   inkscape:version="0.92.5 (2060ec1f9f, 2020-04-08)"
   sodipodi:docname="selectAll.svg">
  <defs
     id="defs77" />
  <sodipodi:namedview
     id="base"
     pagecolor="#ffffff"
     bordercolor="#666666"
     borderopacity="1.0"
     inkscape:pageopacity="0.0"
     inkscape:pageshadow="2"
     inkscape:zoom="1.979899"
     inkscape:cx="166.93647"
     inkscape:cy="108.07511"
     inkscape:document-units="mm"
     inkscape:current-layer="svg83"
     showgrid="false"
     showguides="true"
     inkscape:window-width="1920"
     inkscape:window-height="1031"
     inkscape:window-x="0"
     inkscape:window-y="25"
     inkscape:window-maximized="1">
    <inkscape:grid
       type="xygrid"
       id="grid3788" />
  </sodipodi:namedview>
  <metadata
     id="metadata80">
    <rdf:RDF>
      <cc:Work
         rdf:about="">
        <dc:format>image/svg+xml</dc:format>
        <dc:type
           rdf:resource="http://purl.org/dc/dcmitype/StillImage" />
        <dc:title></dc:title>
      </cc:Work>
    </rdf:RDF>
  </metadata>
  <g
     inkscape:label="Layer 1"
     inkscape:groupmode="layer"
     id="layer1" />
  <g
     id="g718"
     transform="matrix(2.8054107,0,0,3.0408599,-22.558449,-3.4156688)">
    <g
       id="g688">
      <path
         id="path686"
         d="m 83.571,55.818 v 18.315 a 21.91,21.91 0 0 1 -4.88,13.759 v 4.772 A 4.842,4.842 0 0 1 73.853,97.5 H 49.23 A 4.844,4.844 0 0 1 44.392,92.664 V 87.642 L 34.422,75.315 A 11.094,11.094 0 0 1 36.338,59.5 l 3.353,-2.546 V 31.2 a 6.47,6.47 0 0 1 6.463,-6.462 h 0.47 a 6.47,6.47 0 0 1 6.462,6.462 v 12.4 c 1.743,-2.662 3.7,-2.529 3.7,-2.529 2.877,0 5.321,3.554 6.156,6.156 1.865,-2.756 4,-2.716 4,-2.716 3.318,0 6.061,3.967 6.423,7.189 a 5.353,5.353 0 0 1 3.739,-2.345 6.471,6.471 0 0 1 6.467,6.463 z"
         inkscape:connector-curvature="0" />
    </g>
    <polygon
       id="polygon690"
       points="16.429,2.5 25.92,2.5 25.92,7.56 21.853,7.56 21.853,11.355 16.429,11.355 " />
    <polygon
       id="polygon692"
       points="67.956,7.56 63.888,7.56 63.888,2.5 73.38,2.5 73.38,11.355 67.956,11.355 " />
    <polygon
       id="polygon694"
       points="73.38,34.135 63.888,34.135 63.888,29.075 67.956,29.075 67.956,25.28 73.38,25.28 " />
    <polygon
       id="polygon696"
       points="21.853,29.075 25.92,29.075 25.92,34.135 16.429,34.135 16.429,25.28 21.853,25.28 " />
    <text
       id="text698"
       font-weight="bold"
       font-size="5px"
       y="115"
       x="0"
       style="font-weight:bold;font-size:5px;font-family:'Helvetica Neue', Helvetica, Arial-Unicode, Arial, Sans-serif;fill:#000000">Created by Rainbow Designs</text>
    <text
       id="text700"
       font-weight="bold"
       font-size="5px"
       y="120"
       x="0"
       style="font-weight:bold;font-size:5px;font-family:'Helvetica Neue', Helvetica, Arial-Unicode, Arial, Sans-serif;fill:#000000">from the Noun Project</text>
  </g>
</svg>
